<?xml version="1.0" encoding="utf-8"?>
<!-- Generator: Adobe Illustrator 24.1.0, SVG Export Plug-In . SVG Version: 6.00 Build 0)  -->
<svg version="1.1" id="图层_1" xmlns="http://www.w3.org/2000/svg" xmlns:xlink="http://www.w3.org/1999/xlink" x="0px" y="0px"
	 viewBox="0 0 340 100" style="enable-background:new 0 0 340 100;" xml:space="preserve">
<style type="text/css">
	.st0{fill-rule:evenodd;clip-rule:evenodd;fill:#FFFFFF;fill-opacity:0;}
	.st1{fill-rule:evenodd;clip-rule:evenodd;fill:#FFFFFF;}
	.st2{fill:url(#SVGID_1_);}
	.st3{fill:url(#SVGID_2_);}
	.st4{fill:url(#SVGID_3_);}
</style>
<rect id="矩形" class="st0" width="340" height="100"/>
<path id="形状结合" class="st1" d="M297.1,42.4l-0.8,3.5h-9.5l-1.6,6.9h15.7l-0.8,3.5h-15.6l-2.4,10.2h18.6l-0.8,3.5h-44.3
	l0.8-3.5H275l2.4-10.2h-15.6l0.8-3.5h15.6l1.6-6.9h-9.5l0.8-3.5H297.1z M157.9,30.1l-1,3.6h-10l-3.7,13.8l11.1-4.9l-1.8,6.9
	l-11.2,4.9l-3.2,11.8h10l-1,3.6h-43.4l1-3.6h10l3.2-11.8l-8.6-4.9l1.9-6.9l8.6,4.9l3.7-13.8h-10l1-3.6H157.9z M226.4,40.9l-0.6,2.8
	H244l0.6-2.8h6.8l-0.6,2.8h6.8l-0.8,3.5H250l-1.2,5.2v0l-0.1,0.2c-0.4,1.3-1.4,2.4-2.6,3.1l0,0l-10.7,5.6l12.5,8.6h-9.3l-8.4-5.8
	l-11.1,5.8h-51.4l3.5-13.1l0.1-0.2c0.7-2.2,3-3.9,5.1-3.9l0,0h28l-3.2,11.7h-6.1l2.2-8.1h-18.5l-0.1,0c-0.7,0.1-1.3,0.6-1.5,1.3l0,0
	l0,0v0h0l-2.3,8.6h41.9l9.4-4.9l-8.1-5.6l-0.2-0.1c-0.9-0.7-1.3-1.9-1-3.2l0,0l0,0l1.2-5.2h-6.8l0.8-3.5h6.8l0.6-2.8H226.4z
	 M174.5,28.6l-11.1,41.3h-6.1l9-33.6l-5.2,3l1.2-4.4L174.5,28.6z M140.7,33.7h-11.2l-8.7,32.5H132l2.8-10.5l1.4-5.2l0,0L140.7,33.7z
	 M243.2,47.1h-18.3l-1.1,4.9v0l0,0.2c-0.1,0.6,0.1,1.1,0.5,1.4l0,0l7.2,4.9l9.4-4.9l0.2-0.1c0.5-0.3,0.9-0.9,1-1.4l0,0v0L243.2,47.1
	z M206.3,45.6l-1,3.6h-32.1l1-3.6H206.3z M293.2,28.7c2.5,0,4.5,1.1,5.5,2.8l0,0h0l9.4,15.6h-6.8l-8.4-13.8l-0.1-0.1
	c-0.4-0.6-1.1-1-2-1l0,0h-9.1l-0.2,0c-0.7,0.1-1.4,0.3-1.9,0.7l0,0l-15.1,14.2h-6.8l16.7-15.7l0.2-0.2c1.8-1.5,4.1-2.5,6.5-2.5l0,0
	H293.2z M208.2,38.6l-1,3.6h-32.1l1-3.6H208.2z M242.4,28.7l-0.8,3.5h14.9l0.2,0c1.9,0.1,3.1,1.6,2.7,3.5l0,0h0l0,0.1
	c0,0.1,0,0.1,0,0.2l0,0l-0.9,3.8h-6.8l0.7-3.2l0-0.1c0.1-0.5-0.3-0.8-0.8-0.8l0,0h-29.8l-0.1,0c-0.5,0.1-1,0.4-1.1,0.9l0,0l-0.7,3.2
	h-6.8l0.8-3.5l0.1-0.2c0-0.1,0.1-0.3,0.1-0.4l0,0h0l0-0.2c0.5-1.8,2.5-3.3,4.4-3.3l0,0h14.9l0.8-3.5H242.4z M196.5,28.6l0.4,2.9
	h13.2l-1,3.6H177l1-3.6h12.8l-0.4-2.9H196.5z"/>
<g>
	
		<linearGradient id="SVGID_1_" gradientUnits="userSpaceOnUse" x1="44.0852" y1="83.3122" x2="22.3504" y2="27.0572" gradientTransform="matrix(1 0 0 -1 0 102)">
		<stop  offset="0" style="stop-color:#DD5F0F"/>
		<stop  offset="0.19" style="stop-color:#E68D45"/>
		<stop  offset="0.665" style="stop-color:#E1751B"/>
		<stop  offset="1" style="stop-color:#DD5F0F"/>
	</linearGradient>
	<path class="st2" d="M30,15.4C10.9,26.4,4.3,50.9,15.4,70l0,0c4.7,8.2,12,14.1,20.2,17.3l0,0c0-0.1-0.7-16.2-4.8-17l0,0
		c-4.2-0.8-10.5-6.2-6.5-16.9l0,0c2.3-6,4.9-12.1,15.6-27.6l0,0c0,0,5.7-7.1,9.7-9.4l0,0c7.9-4.5,15.7-3.9,20.6-1l0,0
		C64,11.9,57,10,50,10l0,0C43.2,10,36.3,11.7,30,15.4"/>
	
		<linearGradient id="SVGID_2_" gradientUnits="userSpaceOnUse" x1="10" y1="35.0392" x2="89.9478" y2="35.0392" gradientTransform="matrix(1 0 0 -1 0 102)">
		<stop  offset="0" style="stop-color:#666763"/>
		<stop  offset="0.19" style="stop-color:#C8C8C5"/>
		<stop  offset="1" style="stop-color:#44423F"/>
	</linearGradient>
	<path class="st3" d="M10,49.9L10,49.9L10,49.9L10,49.9 M10,49.9L10,49.9L10,49.9L10,49.9 M10,49.9L10,49.9 M10,49.9L10,49.9
		L10,49.9L10,49.9 M10,49.9L10,49.9L10,49.9L10,49.9 M77.2,56.5c1.4,4-0.1,12.2-11.3,14.1l0,0c-6.4,1.1-13,1.8-31.7,0.3l0,0
		c0,0-9-1.4-13-3.7l0,0C13.3,62.8,10,55.7,10,49.9l0,0c0,13.8,7.2,27.3,20,34.7l0,0c19.1,11,43.6,4.5,54.6-14.6l0,0
		c4.7-8.2,6.2-17.4,4.9-26.1l0,0C89.4,43.9,75.8,52.6,77.2,56.5"/>
	
		<linearGradient id="SVGID_3_" gradientUnits="userSpaceOnUse" x1="82.2946" y1="35.8404" x2="55.0182" y2="84.0006" gradientTransform="matrix(1 0 0 -1 0 102)">
		<stop  offset="0" style="stop-color:#28A13A"/>
		<stop  offset="0.19" style="stop-color:#94BF3F"/>
		<stop  offset="0.7" style="stop-color:#57AB47"/>
		<stop  offset="1" style="stop-color:#129043"/>
	</linearGradient>
	<path class="st4" d="M42.1,23.1c0-0.1,0.1-0.1,0.1-0.2l0,0C42.2,23,42.1,23.1,42.1,23.1 M49.5,16.4c-2.3,1.4-5.2,4.3-7.2,6.6l0,0
		c2.9-3.1,10.6-5.6,17.7,3l0,0c4.1,5,8,10.3,16.2,27.3l0,0c0,0,3.3,8.5,3.3,13.1l0,0c0,9.1-4.5,15.5-9.5,18.4l0,0
		c11.9-7,20-20,20-34.8l0,0c0-7.3-1.9-14.1-5.3-20l0,0c-3.5-6.1-8.6-11.2-14.7-14.7l0,0c-2.4-1.4-5.5-2.2-8.9-2.2l0,0
		C57.4,13.1,53.5,14.1,49.5,16.4"/>
</g>
</svg>
