<?xml version="1.0" encoding="utf-8"?>
<!-- Generator: Adobe Illustrator 24.1.0, SVG Export Plug-In . SVG Version: 6.00 Build 0)  -->
<svg version="1.1" id="图层_1" xmlns="http://www.w3.org/2000/svg" xmlns:xlink="http://www.w3.org/1999/xlink" x="0px" y="0px"
	 viewBox="0 0 100 100" style="enable-background:new 0 0 100 100;" xml:space="preserve">
<style type="text/css">
	.st0{fill-rule:evenodd;clip-rule:evenodd;fill:#FFFFFF;fill-opacity:0;}
	.st1{fill:url(#SVGID_1_);}
	.st2{fill:url(#SVGID_2_);}
	.st3{fill:url(#SVGID_3_);}
</style>
<g id="icon_x2F_Corporate_x5F_logo_x2F_logo_x2F_1.亚信">
	<rect id="矩形" class="st0" width="100" height="100"/>
	<g>
		
			<linearGradient id="SVGID_1_" gradientUnits="userSpaceOnUse" x1="44.0851" y1="83.2961" x2="22.3624" y2="27.0724" gradientTransform="matrix(1 0 0 -1 0 102)">
			<stop  offset="0" style="stop-color:#DD5F0F"/>
			<stop  offset="0.19" style="stop-color:#E68D45"/>
			<stop  offset="0.665" style="stop-color:#E1751B"/>
			<stop  offset="1" style="stop-color:#DD5F0F"/>
		</linearGradient>
		<path class="st1" d="M30,15.4C10.9,26.4,4.3,50.9,15.4,70l0,0c4.7,8.2,12,14.1,20.2,17.3l0,0c0-0.1-0.7-16.2-4.8-17l0,0
			c-4.2-0.8-10.5-6.2-6.5-16.9l0,0c2.3-6,4.9-12.1,15.6-27.6l0,0c0,0,5.7-7.1,9.7-9.4l0,0c7.9-4.5,15.7-3.9,20.6-1l0,0
			C64,11.9,57,10,50,10l0,0C43.2,10,36.3,11.7,30,15.4"/>
		
			<linearGradient id="SVGID_2_" gradientUnits="userSpaceOnUse" x1="10" y1="35.05" x2="89.9478" y2="35.05" gradientTransform="matrix(1 0 0 -1 0 102)">
			<stop  offset="0" style="stop-color:#666763"/>
			<stop  offset="0.19" style="stop-color:#C8C8C5"/>
			<stop  offset="1" style="stop-color:#44423F"/>
		</linearGradient>
		<path class="st2" d="M10,49.9L10,49.9L10,49.9L10,49.9 M10,49.9L10,49.9L10,49.9L10,49.9 M10,49.9L10,49.9 M10,49.9L10,49.9
			L10,49.9L10,49.9 M10,49.9L10,49.9L10,49.9L10,49.9 M77.2,56.5c1.4,4-0.1,12.2-11.3,14.1l0,0c-6.4,1.1-13,1.8-31.7,0.3l0,0
			c0,0-9-1.4-13-3.7l0,0C13.3,62.8,10,55.7,10,49.9l0,0c0,13.8,7.2,27.3,20,34.7l0,0c19.1,11,43.6,4.5,54.6-14.6l0,0
			c4.7-8.2,6.2-17.4,4.9-26.1l0,0C89.4,43.9,75.8,52.6,77.2,56.5"/>
		
			<linearGradient id="SVGID_3_" gradientUnits="userSpaceOnUse" x1="82.2898" y1="35.8536" x2="55.0284" y2="83.9874" gradientTransform="matrix(1 0 0 -1 0 102)">
			<stop  offset="0" style="stop-color:#28A13A"/>
			<stop  offset="0.19" style="stop-color:#94BF3F"/>
			<stop  offset="0.7" style="stop-color:#57AB47"/>
			<stop  offset="1" style="stop-color:#129043"/>
		</linearGradient>
		<path class="st3" d="M42.1,23.1c0-0.1,0.1-0.1,0.1-0.2l0,0C42.2,23,42.1,23.1,42.1,23.1 M49.5,16.4c-2.3,1.4-5.2,4.3-7.2,6.6l0,0
			c2.9-3.1,10.6-5.6,17.7,3l0,0c4.1,5,8,10.3,16.2,27.3l0,0c0,0,3.3,8.5,3.3,13.1l0,0c0,9.1-4.5,15.5-9.5,18.4l0,0
			c11.9-7,20-20,20-34.8l0,0c0-7.3-1.9-14.1-5.3-20l0,0c-3.5-6.1-8.6-11.2-14.7-14.7l0,0c-2.4-1.4-5.5-2.2-8.9-2.2l0,0
			C57.4,13.1,53.5,14.1,49.5,16.4"/>
	</g>
</g>
</svg>
