<svg style="position: absolute; width: 0; height: 0;" width="0" height="0" version="1.1" xmlns="http://www.w3.org/2000/svg" xmlns:xlink="http://www.w3.org/1999/xlink"><defs><symbol id="start" viewBox="0 -212 1024 1024"><path d="M767 275 q6 5 9 11 q2 6 2 14 q0 8 -2 14 q-3 6 -9 11 l-323 247 q-12 6 -22 -1 q-9 -8 -10 -25 l0 -492 q1 -17 10 -25 q10 -8 22 -1 l323 247 ZM549 -204 q-214 5 -357 147 q-141 143 -147 357 q6 214 147 357 q143 142 357 147 q214 -5 357 -147 q142 -143 147 -357 q-5 -214 -147 -357 q-143 -142 -357 -147 ZM549 740 q-187 -5 -310 -129 q-125 -124 -129 -311 q4 -187 129 -311 q123 -124 310 -129 q187 5 311 129 q124 124 129 311 q-5 187 -129 311 q-124 124 -311 129 Z"></path></symbol><symbol id="pause" viewBox="0 -212 1024 1024"><path d="M548 804 q-101 0 -195 -40 q-91 -38 -160 -108 q-70 -70 -108 -160 q-40 -94 -40 -197 q0 -102 40 -196 q38 -90 108 -160 q69 -69 160 -107 q94 -40 195 -40 q103 0 197 40 q90 38 160 107 q70 70 109 160 q39 94 39 196 q0 103 -39 197 q-39 90 -109 160 q-70 70 -160 108 q-94 40 -197 40 ZM548 -133 q-86 0 -164 33 q-79 33 -141 94 q-61 62 -94 141 q-33 78 -33 164 q0 88 33 166 q33 78 94 140 q62 62 141 95 q78 32 164 33 q89 -1 166 -33 q79 -33 140 -95 q62 -62 95 -140 q32 -78 33 -166 q-1 -86 -33 -164 q-33 -79 -95 -141 q-61 -61 -140 -94 q-77 -33 -166 -33 ZM477 84 l0 424 l-110 0 l0 -424 l110 0 ZM723 84 l0 424 l-110 0 l0 -424 l110 0 Z"></path></symbol><symbol id="x" viewBox="0 -212 1024 1024"><path d="M281 315 l438 0 l0 -97 l133 0 q30 0 50 9 q19 9 31 22 q12 14 17 30 q5 16 5 29 q0 4 1 18 l0 71 l-912 0 l0 -76 q0 -26 9 -46 q9 -19 23 -32 q14 -12 33 -18 q18 -6 36 -6 l83 0 q26 0 53 -1 l0 97 ZM44 451 l0 167 q0 14 4 30 q4 16 14 29 q9 14 25 23 q16 10 41 10 q25 1 45 1 l63 0 l44 -128 l439 0 l45 128 l62 0 q15 1 29 0 q14 0 32 -5 q17 -4 33 -16 q15 -11 26 -30 q10 -18 10 -47 l0 -58 q-1 -29 -1 -52 l0 -52 l-911 0 ZM163 514 q13 0 22 8 q9 9 9 22 q0 13 -9 21 q-9 9 -22 9 q-12 0 -21 -9 q-9 -8 -9 -21 q0 -13 9 -22 q9 -8 21 -8 ZM684 638 q6 20 11 39 l10 34 q4 18 9 31 q9 26 -2 38 q-11 12 -34 12 l-365 0 q-14 0 -21 -4 q-8 -4 -10 -11 q-2 -6 -1 -14 q1 -8 3 -15 q2 -7 8 -25 q5 -18 10 -37 q6 -22 14 -48 l368 0 ZM663 263 l0 -227 q0 -38 -20 -53 q-21 -14 -52 -14 l-188 0 q-21 0 -34 6 q-13 6 -20 15 q-8 10 -10 22 q-3 12 -3 23 l0 228 l327 0 Z"></path></symbol><symbol id="resize" viewBox="0 -212 1024 1024"><path d="M675 668 q16 -11 36 -8 q20 4 31 20 q11 16 8 35 q-4 20 -20 32 q-103 72 -229 72 q-18 0 -40 -2 q-2 0 -8 -1 q-18 -2 -22 -3 q-1 0 -7 -1 q-2 -1 -15 -4 q-12 -2 -24 -6 q-5 -1 -12 -4 q-17 -6 -26 -10 q-1 0 -3 -1 q-3 -1 -4 -2 q-16 -6 -29 -14 q-1 0 -2 -1 q-51 -28 -91 -68 l-2 -2 q-15 -15 -23 -25 q-1 -1 -3 -4 l-3 -3 q-12 -16 -14 -19 q-1 -1 -1 -2 l-1 -1 q-71 -103 -71 -227 l-80 0 l128 -192 l128 192 l-80 0 q0 106 67 189 q1 2 3 5 q8 10 19 20 q0 1 1 1 q30 30 69 52 q1 0 1 1 q9 4 23 11 l5 2 q9 4 20 7 q2 1 5 2 q3 1 4 1 q6 2 18 5 q11 2 12 2 q6 2 19 3 q8 2 10 2 q17 1 25 1 q98 1 178 -55 ZM981 419 l-128 192 l-128 -192 l80 0 q0 -109 -69 -193 q-1 0 -1 -1 q-47 -57 -115 -86 q-1 -1 -2 -1 q-9 -4 -23 -8 l-6 -2 q-8 -3 -21 -5 q-7 -2 -9 -3 q-8 -1 -21 -3 q-6 -1 -8 -1 q-13 -1 -27 -1 q-97 -1 -177 55 q-16 11 -36 7 q-20 -3 -31 -20 q-11 -16 -7 -36 q3 -19 19 -30 q103 -72 228 -72 q1 -1 2 -1 l2 0 q2 1 3 1 q19 0 32 1 q2 1 7 1 q4 1 6 1 q15 2 19 2 q1 1 4 1 q2 1 3 1 q3 1 8 2 q4 1 6 1 q16 4 25 7 q2 0 10 3 q19 6 29 10 q1 1 3 1 l2 2 q87 38 149 112 q1 1 2 3 q11 13 18 22 q0 1 1 2 l0 2 q71 102 71 226 l80 0 Z"></path></symbol><symbol id="diannao" viewBox="0 -212 1024 1024"><path d="M871 -86 q20 0 35 15 q15 15 15 35 l0 559 q0 22 -15 36 q-15 15 -35 15 l-305 0 l0 51 l152 0 q21 0 36 15 q15 15 15 36 l0 51 l-507 0 l0 -51 q0 -21 15 -36 q14 -15 35 -15 l153 0 l0 -51 l-306 0 q-20 0 -35 -15 q-15 -14 -15 -36 l0 -559 q0 -20 15 -35 q15 -15 35 -15 l712 0 ZM820 16 l-610 0 l0 457 l610 0 l0 -457 Z"></path></symbol><symbol id="kaiguan" viewBox="0 -212 1024 1024"><path d="M512 854 q95 0 182 -37 q87 -37 150 -100 q63 -62 100 -149 q37 -87 37 -182 q0 -105 -44 -198 q-44 -93 -121 -159 q-5 -5 -13 -10 l-3 -3 q-2 -1 -3 -3 l-4 -2 l-56 0 l0 15 q-19 17 -19 41 q0 22 15 38 l-3 0 q65 50 102 123 q37 74 37 158 q0 97 -48 179 q-48 82 -130 129 q-82 48 -179 48 q-97 0 -179 -48 q-82 -47 -130 -129 q-48 -82 -48 -179 q0 -84 37 -158 q37 -73 101 -123 l-2 0 q14 -16 14 -38 q0 -18 -10 -33 q-11 -14 -27 -19 l0 -4 l-37 0 q-2 2 -6 5 l-4 3 q-8 4 -14 11 q-77 66 -121 158 q-44 93 -44 198 q0 95 38 182 q37 87 100 149 q63 63 150 100 q86 37 182 37 ZM565 401 q22 -22 22 -53 l0 -355 q0 -32 -22 -54 q-22 -22 -53 -22 q-31 0 -53 22 q-22 22 -22 54 l0 355 q0 31 22 53 q22 22 53 22 q31 0 53 -22 Z"></path></symbol><symbol id="arrow1" viewBox="0 -212 1024 1024"><path d="M500 634.88 q7 7 17 6 q10 0 17 -7 l445 -442 q7 -7 7 -17 q0 -9 -7 -16 l-35 -19 q-4 -3 -8 -3 q-5 0 -8 2 q-4 2 -8 5 q-5 4 -8 7 l-7 7 q-4 5 -5 6 l-384 379 l-16 92 ZM520 545.88 l-390 -382 q-1 -1 -5 -6 l-14 -14 q-5 -3 -8 -5 q-4 -2 -8 -2 q-5 0 -9 3 l-35 19 q-7 7 -7 17 q0 10 7 16 l445 442 q7 7 17 7 q10 1 16 -6 l-9 -89 Z"></path></symbol><symbol id="shoucang" viewBox="0 -212 1024 1024"><path d="M762 517 l47 290 q2 5 2 11 q0 14 -9 24 q-10 10 -24 10 q-9 0 -17 -4 l-251 -140 l-252 139 q-18 10 -35 -2 q-17 -12 -14 -33 l49 -296 l-204 -211 q-14 -14 -8 -34 q6 -19 27 -22 l281 -42 l127 -269 q9 -19 30 -19 q21 0 30 20 l126 269 l281 43 q20 3 27 22 q6 20 -8 34 l-205 210 Z"></path></symbol><symbol id="search" viewBox="0 -212 1024 1024"><path d="M960 723 q23 23 23 55 q0 33 -23 55 q-23 23 -55 23 q-33 0 -56 -22 l-225 -226 q-2 -2 -6 -8 q-93 60 -203 60 q-101 0 -187 -50 q-86 -49 -136 -135 q-50 -86 -50 -188 q0 -101 50 -187 q50 -86 136 -136 q86 -50 187 -50 q101 0 187 50 q85 50 135 136 q50 86 50 187 q0 111 -60 203 q7 6 8 7 l225 226 ZM595 468 q74 -75 74 -181 q0 -105 -74 -180 q-75 -75 -180 -75 q-105 0 -180 75 q-75 75 -75 180 q0 106 75 181 q75 75 180 75 q105 0 180 -75 Z"></path></symbol><symbol id="lock-fill" viewBox="0 -212 1024 1024"><path d="M814 313 q24 0 41 17 q17 17 17 41 l0 424 q0 24 -17 41 q-17 17 -41 17 l-604 0 q-24 0 -41 -17 q-17 -17 -17 -41 l0 -424 q0 -24 17 -41 q17 -17 41 -17 l67 0 l0 -155 q0 -97 69 -166 q69 -69 166 -69 q97 0 166 69 q69 69 69 166 l0 155 l67 0 ZM545 594 q18 -9 29 -26 q10 -17 10 -38 q0 -30 -21 -51 q-21 -21 -51 -21 q-30 0 -51 21 q-21 21 -21 51 q0 21 11 38 q10 17 28 26 l0 93 q0 8 8 8 l50 0 q8 0 8 -8 l0 -93 ZM657 162 q0 -60 -42 -103 q-43 -42 -103 -42 q-60 0 -102 42 q-43 43 -43 103 l0 151 l290 0 l0 -151 Z"></path></symbol><symbol id="bangzhu" viewBox="0 -212 1024 1024"><path d="M694 -47 q87 37 150 99 q62 63 99 150 q37 87 37 182 q0 95 -37 182 q-37 87 -99 149 q-63 63 -150 100 q-87 37 -182 37 q-95 0 -182 -37 q-87 -37 -149 -100 q-63 -62 -100 -149 q-37 -87 -37 -182 q0 -95 37 -182 q37 -87 100 -150 q62 -62 149 -99 q87 -37 182 -37 q95 0 182 37 ZM559 618 l-94 0 l0 94 l94 0 l0 -94 ZM656 349 q43 -44 43 -105 q0 -78 -54 -133 q-55 -55 -133 -55 q-78 0 -132 55 q-55 55 -55 133 l93 0 q0 -39 28 -67 q27 -27 66 -27 q39 0 67 27 q27 28 27 66 q0 39 -28 67 l-58 59 q-55 55 -55 132 l0 23 l94 0 q0 -48 13 -76 q13 -27 42 -56 l42 -43 Z"></path></symbol><symbol id="xiaoxi" viewBox="0 -212 1024 1024"><path d="M746 -27 q107 55 169 148 q62 94 62 204 q0 111 -62 205 q-62 94 -169 148 q-108 55 -234 55 q-42 0 -87 -8 l-204 124 l0 -206 q-81 -57 -127 -140 q-47 -83 -47 -177 q0 -111 62 -205 q62 -93 170 -148 q107 -54 233 -54 q126 0 234 54 ZM321 367 q17 -17 17 -41 q0 -24 -17 -41 q-17 -17 -41 -17 q-25 0 -42 17 q-17 17 -17 41 q0 24 17 41 q17 17 42 17 q24 0 41 -17 ZM553 367 q17 -17 17 -41 q0 -24 -17 -41 q-17 -17 -41 -17 q-24 0 -41 17 q-17 17 -17 41 q0 24 17 41 q17 17 41 17 q24 0 41 -17 ZM786 367 q17 -17 17 -41 q0 -24 -17 -41 q-17 -17 -41 -17 q-25 0 -42 17 q-17 17 -17 41 q0 24 17 41 q17 17 42 17 q24 0 41 -17 Z"></path></symbol><symbol id="label-book" viewBox="0 -212 1024 1024"><path d="M419 507.89 l-98 -108 l-101 107 l0 -591 q-7 1 -25 4 q-28 5 -51 23 q-24 19 -36 45 q-5 11 -12 49 l0 696 q8 42 15 53 q12 25 35 41 q22 17 49 22 q10 2 22 2 q11 1 26 1 l664 0 q12 1 21 -7 q9 -8 8 -19 q1 -48 0 -92 q1 -10 -7 -18 q-8 -8 -18 -7 q-10 -1 -18 7 q-8 8 -7 18 q-1 7 -1 33 l0 34 l-662 0 q-24 0 -44 -14 q-20 -13 -26 -35 q-10 -28 7 -55 q16 -27 45 -31 q19 -2 186 -3 l334 0 q167 1 175 1 q23 -2 28 -8 q9 -8 9 -24 q-1 -333 0 -667 l0 -12 q0 -9 -1 -15 q-1 -6 -5 -11 q-3 -4 -21 -11 l-491 0 l0 592 Z"></path></symbol><symbol id="sas" viewBox="0 -212 1024 1024"><path d="M974 26 q0 13 1 33 q0 20 -1 75 q-2 55 -6 107 q-4 52 -14 119 q-10 68 -25 124 q-16 56 -46 108 q-31 52 -65 90 q-35 38 -77 72 q-43 35 -76 56 q-34 22 -69 40 q-36 18 -50 24 q-14 6 -23 10 l-17 6 l-16 -6 q-13 -5 -33 -14 q-21 -9 -72 -38 q-51 -29 -95 -63 q-45 -34 -95 -89 q-50 -55 -80 -117 l-15 -29 l241 -261 l132 111 l157 -172 l-79 4 l-4 -86 l227 -11 l12 236 l-86 5 l-4 -80 l-214 234 l-132 -111 l-135 147 q29 48 72 90 q42 43 87 73 q45 30 75 46 q30 17 57 29 q26 -11 54 -26 q28 -15 74 -46 q45 -31 82 -66 q37 -34 72 -85 q34 -51 49 -106 q44 -162 43 -400 q-209 -84 -373 -84 q-165 0 -374 84 q-1 141 19 287 l-82 79 q-17 -83 -25 -185 q-9 -101 -7 -149 q2 -47 1 -65 l1 -29 l26 -13 q11 -5 30 -13 q18 -7 68 -25 q50 -17 100 -31 q50 -13 117 -24 q67 -11 126 -11 q58 0 125 11 q67 11 117 24 q49 14 99 31 q50 18 69 26 q19 8 29 12 l27 13 l1 29 Z"></path></symbol><symbol id="yonghu" viewBox="0 -212 1024 1024"><path d="M684 712 q82 -35 142 -95 q59 -59 94 -142 q35 -82 35 -173 q0 -91 -35 -174 q-35 -82 -94 -142 q-60 -59 -142 -94 q-83 -35 -174 -35 q-91 0 -173 35 q-83 35 -142 94 q-60 60 -95 142 q-35 83 -35 174 q0 91 35 173 q35 83 95 142 q59 60 142 95 q82 35 173 35 q91 0 174 -35 ZM692 -12 q83 49 132 132 q48 84 48 182 q0 139 -94 243 q-26 -13 -46 -17 q-21 -3 -56 -17 q-70 -29 -87 -38 l0 -67 l7 -6 q6 -7 15 -28 q9 -20 12 -48 q11 3 17 -8 q5 -11 6 -26 q0 -2 1 -12 q1 -10 2 -17 l0 -14 q-1 -8 -4 -12 q-4 -3 -9 -2 q7 -56 6 -73 q-5 -43 -37 -75 q-32 -31 -95 -34 q-54 3 -90 35 q-37 33 -41 74 q-2 18 5 73 q-5 -1 -8 3 q-4 4 -4 11 q-1 8 0 15 q0 7 1 16 q1 10 1 12 q1 15 7 26 q5 11 16 8 q3 28 13 49 q9 21 14 26 q4 5 7 8 l0 66 l-7 3 q-6 4 -27 13 q-22 10 -53 23 q-35 14 -55 17 q-21 3 -47 16 q-94 -104 -94 -243 q0 -98 49 -182 q48 -83 132 -132 q83 -48 181 -48 q98 0 182 48 Z"></path></symbol><symbol id="iconfontyingyongzhuce" viewBox="0 -212 1024 1024"><path d="M495 436 q11 0 19 7 q7 8 7 19 l0 416 q0 11 -7 18 q-8 8 -19 8 l-416 0 q-11 0 -18 -8 q-8 -7 -8 -18 l0 -416 q0 -11 8 -19 q7 -7 18 -7 l416 0 ZM1067 436 q11 0 19 7 q7 8 7 19 l0 416 q0 11 -7 18 q-8 8 -19 8 l-416 0 q-11 0 -18 -8 q-8 -7 -8 -18 l0 -416 q0 -11 8 -19 q7 -7 18 -7 l416 0 ZM495 -136 q11 0 19 7 q7 8 7 19 l0 416 q0 11 -7 18 q-8 8 -19 8 l-416 0 q-11 0 -18 -8 q-8 -7 -8 -18 l0 -416 q0 -11 8 -19 q7 -7 18 -7 l416 0 ZM120 254 q0 5 3 8 q3 4 8 4 l312 0 q5 0 9 -4 q3 -3 3 -8 l0 -312 q0 -5 -3 -9 q-4 -3 -9 -3 l-312 0 q-5 0 -8 3 q-3 4 -3 9 l0 312 ZM1067 -136 q11 0 19 7 q7 8 7 19 l0 416 q0 11 -7 18 q-8 8 -19 8 l-416 0 q-11 0 -18 -8 q-8 -7 -8 -18 l0 -416 q0 -11 8 -19 q7 -7 18 -7 l416 0 Z"></path></symbol><symbol id="back" viewBox="0 -212 1024 1024"><path d="M700 854 q23 0 40 -17 q16 -16 16 -40 q0 -23 -16 -40 l-374 -373 l374 -373 q16 -17 16 -41 q0 -23 -16 -40 q-17 -16 -40 -16 q-24 0 -40 17 l-413 413 q-17 17 -17 40 q0 23 17 40 l413 413 q16 17 40 17 Z"></path></symbol><symbol id="right" viewBox="0 -212 1024 1024"><path d="M812 409.06 q-6 10 -7 12 l-2 1 q-1 1 -1 2 l-1 1 l-422 407 q-17 16 -40 16 q-24 0 -41 -18 q-17 -17 -16 -41 q0 -24 17 -41 l380 -366 l-381 -361 q-18 -17 -18 -41 q-1 -24 16 -41 q16 -17 40 -18 q24 -1 41 16 l425 402 q14 13 17 32 q3 19 -5 35 l-1 1 l-1 2 Z"></path></symbol><symbol id="gonggao" viewBox="0 -212 1024 1024"><path d="M1164 330.63 q19 0 33 13 q13 14 13 33 l0 14 q0 19 -13 32 q-14 14 -33 14 l-223 0 q-19 0 -32 -14 q-14 -13 -14 -32 l0 -14 q0 -19 14 -33 q13 -13 32 -13 l223 0 ZM647 -64.37 q10 -7 24 -13 q14 -5 31 -5 q16 0 27 17 q11 17 11 52 l0 794 q0 35 -11 52 q-11 18 -27 18 q-17 1 -31 -4 q-14 -4 -24 -11 q-32 -24 -148 -98 q-117 -73 -171 -113 q-1 0 -2 -3 l-1 -2 q-3 -1 -9 -7 q-7 -5 -13 -9 q-7 -4 -23 -7 q-17 -3 -40 -3 l-131 0 q-55 0 -55 -53 l0 -315 q0 -51 55 -51 l131 0 q23 0 40 -4 q16 -3 23 -7 q6 -3 13 -9 q6 -5 8 -6 q1 -1 2 -4 q1 -2 2 -2 q49 -35 166 -107 q117 -71 153 -100 ZM846 141.63 q-9 -16 -6 -35 q3 -18 16 -29 l183 -155 q13 -10 28 -7 q15 3 24 19 l7 12 q9 16 6 34 q-3 19 -16 30 l-183 154 q-13 11 -28 7 q-15 -3 -24 -18 l-7 -12 ZM1088 757.63 q13 10 16 29 q3 19 -6 34 l-7 12 q-9 16 -24 19 q-15 4 -28 -7 l-183 -154 q-13 -11 -16 -30 q-3 -19 6 -34 l7 -12 q9 -16 24 -20 q15 -3 28 8 l183 155 Z"></path></symbol><symbol id="close" viewBox="0 -212 1024 1024"><path d="M577 384 l402 -402 l-65 -65 l-402 402 l-402 -402 l-65 65 l402 402 l-402 402 l65 65 l402 -402 l402 402 l65 -65 l-402 -402 Z"></path></symbol><symbol id="leftarrow" viewBox="0 -212 1024 1024"><path d="M332 -44 q-87 37 -149 99 q-62 62 -99 148 q-37 87 -37 181 q0 94 37 180 q37 87 99 149 q62 62 149 99 q86 37 180 37 q94 0 181 -37 q86 -37 148 -99 q62 -62 99 -149 q37 -86 37 -180 q0 -94 -37 -181 q-37 -86 -99 -148 q-62 -62 -148 -99 q-87 -37 -181 -37 q-94 0 -180 37 ZM716 31 q94 55 149 149 q54 94 54 204 q0 110 -54 204 q-55 94 -149 148 q-94 55 -204 55 q-110 0 -204 -55 q-94 -54 -148 -148 q-55 -94 -55 -204 q0 -110 55 -204 q54 -94 148 -149 q94 -54 204 -54 q110 0 204 54 ZM259 363 q-9 9 -9 21 q0 12 9 21 l174 174 q9 8 21 8 q12 0 21 -9 q8 -8 8 -20 q0 -12 -9 -20 l-124 -125 l395 0 q12 0 21 -9 q8 -8 8 -20 q0 -12 -8 -21 q-9 -8 -21 -8 l-395 0 l124 -125 q9 -8 9 -20 q0 -12 -8 -21 q-9 -8 -21 -8 q-12 0 -21 8 l-174 174 Z"></path></symbol><symbol id="arrow" viewBox="0 -212 1024 1024"><path d="M693 -44 q86 37 148 99 q62 62 99 148 q37 87 37 181 q0 94 -37 180 q-37 87 -99 149 q-62 62 -148 99 q-87 37 -181 37 q-94 0 -180 -37 q-87 -37 -149 -99 q-62 -62 -99 -149 q-37 -86 -37 -180 q0 -94 37 -181 q37 -86 99 -148 q62 -62 149 -99 q86 -37 180 -37 q94 0 181 37 ZM716 736 q94 -54 149 -148 q54 -94 54 -204 q0 -110 -54 -204 q-55 -94 -149 -149 q-94 -54 -204 -54 q-110 0 -204 54 q-94 55 -148 149 q-55 94 -55 204 q0 110 55 204 q54 94 148 148 q94 55 204 55 q110 0 204 -55 ZM765 363 q9 9 9 21 q0 12 -9 21 l-174 174 q-9 8 -21 8 q-12 0 -20 -9 q-9 -8 -9 -20 q0 -12 9 -20 l124 -125 l-395 0 q-12 0 -20 -9 q-9 -8 -9 -20 q0 -12 9 -21 q8 -8 20 -8 l395 0 l-124 -125 q-9 -8 -9 -20 q0 -12 9 -21 q8 -8 20 -8 q12 0 21 8 l174 174 Z"></path></symbol><symbol id="xinghao" viewBox="0 -212 1024 1024"><path d="M698 321 q63 -24 73 -36 q9 -12 9 -32 q0 -19 -12 -34 q-13 -14 -32 -14 q-15 0 -30 5 q-15 5 -35 24 l-154 135 l40 -202 q5 -10 5 -22 l0 -22 q0 -14 -10 -34 q-10 -19 -40 -19 q-19 0 -34 17 q-15 17 -15 36 q0 10 3 19 q2 10 2 24 l34 203 l-151 -135 q-15 -14 -32 -22 q-17 -7 -31 -7 q-15 0 -30 12 q-14 12 -14 36 q0 30 24 42 q23 11 58 26 l164 63 l-164 63 q-53 19 -67 33 q-15 15 -15 35 q0 29 15 38 q14 10 29 10 q15 0 33 -10 q17 -10 32 -19 l154 -135 l-40 203 q0 14 -2 24 q-3 10 -3 19 q0 34 18 43 q17 10 32 10 q20 0 35 -12 q14 -12 14 -41 l0 -17 q0 -12 -5 -26 l-34 -203 l151 135 q19 14 34 21 q15 8 30 8 q14 0 29 -5 q14 -5 14 -43 q0 -15 -9 -30 q-10 -14 -73 -38 l-164 -63 l164 -63 Z"></path></symbol><symbol id="add" viewBox="0 -212 1024 1024"><path d="M844 51 q68 68 103 155 q35 88 35 177 q0 89 -35 177 q-35 88 -103 155 q-90 91 -211 123 q-121 32 -241 0 q-121 -32 -212 -123 q-67 -67 -102 -155 q-36 -88 -36 -177 q0 -89 36 -177 q35 -87 102 -155 q91 -90 212 -122 q120 -32 241 0 q121 32 211 122 ZM744 326 l-188 0 l0 -193 l-98 0 l0 193 l-193 0 l0 93 l193 0 l0 193 l98 0 l0 -193 l188 0 l0 -93 Z"></path></symbol><symbol id="dian" viewBox="0 -212 1024 1024"><path d="M349 391 q0 -72 52 -124 q51 -51 123 -51 q72 0 124 51 q51 52 51 124 q0 73 -51 124 q-52 51 -124 51 q-72 0 -123 -51 q-52 -51 -52 -124 Z"></path></symbol><symbol id="warn" viewBox="0 -212 1024 1024"><path d="M694 -47 q86 37 149 100 q63 63 100 149 q37 87 37 182 q0 96 -37 182 q-37 87 -100 150 q-63 63 -149 100 q-87 37 -182 37 q-96 0 -183 -37 q-87 -37 -149 -100 q-63 -63 -100 -150 q-37 -86 -37 -182 q0 -95 37 -182 q37 -86 100 -149 q62 -63 149 -100 q87 -37 183 -37 q95 0 182 37 ZM509 677 q27 0 47 -19 q19 -19 18 -46 q-1 -25 -18 -43 q-18 -17 -43 -17 q-27 -1 -46 18 q-19 19 -18 46 q0 25 18 42 q18 18 42 19 ZM595 151 q0 -24 -15 -41 q-16 -17 -38 -17 l-62 0 q-22 0 -37 17 q-16 17 -16 41 l23 290 q0 24 16 41 q15 17 37 17 l19 0 q22 0 38 -17 q15 -17 15 -41 l20 -290 Z"></path></symbol><symbol id="star-o" viewBox="0 -212 1024 1024"><path d="M776 853 q23 -6 38 -28 q15 -22 9 -55 q-12 -72 -39 -244 q-1 -6 4 -12 q20 -21 170 -177 q18 -19 21 -43 q3 -24 -11 -44 q-17 -26 -57 -32 q-40 -6 -115 -18 q-75 -11 -108 -16 q-8 -1 -12 -10 q-11 -23 -30 -64 q-19 -41 -34 -75 q-16 -34 -30 -65 q-21 -47 -60 -55 l-16 0 q-22 7 -23 8 q-20 10 -31 34 q-10 22 -45 98 q-35 76 -54 117 q-5 11 -16 12 q-44 7 -208 32 q-25 4 -28 5 q-38 9 -49 46 q-12 39 16 68 q5 5 107 112 q59 62 64 67 q6 6 5 14 q-21 129 -40 250 q-4 27 11 48 q15 22 40 28 q1 0 6 2 l17 0 q18 -6 36 -15 q17 -9 40 -23 q22 -13 33 -18 l119 -68 q8 -4 15 0 q117 67 194 109 q2 1 35 15 l16 0 l10 -3 ZM747 782 q-167 -94 -196 -110 q-37 -21 -74 0 q-29 16 -197 110 l-10 6 q6 -44 7 -45 q33 -207 34 -212 q5 -34 -21 -61 q-27 -28 -167 -174 l-8 -9 q60 -9 64 -10 q165 -26 180 -28 q34 -6 50 -40 l100 -215 q0 -1 5 -11 q5 9 5 10 q85 185 97 210 q18 42 66 49 q25 3 231 35 l-8 9 q-138 143 -167 173 q-27 28 -20 67 q7 46 39 242 l0 9 l-10 -5 Z"></path></symbol><symbol id="arrow2" viewBox="0 -212 1024 1024"><path d="M780 383 l-473 474 l-63 -63 l411 -412 l-409 -409 l62 -62 l472 472 Z"></path></symbol><symbol id="path3" viewBox="0 -212 1024 1024"><path d="M956 829 q37 0 63 -24 q25 -23 25 -58 l0 -96 q0 -35 -25 -59 q-26 -23 -63 -23 l-818 0 q-37 0 -62 23 q-26 24 -26 59 l0 96 q0 35 26 58 q25 24 62 24 l818 0 ZM902 655 q19 18 19 44 q0 26 -19 44 q-19 18 -45 18 q-27 0 -45 -18 q-19 -18 -19 -44 q0 -26 19 -44 q18 -18 45 -18 q26 0 45 18 ZM956 507 q37 0 63 -23 q25 -23 25 -58 l0 -96 q0 -35 -25 -59 q-26 -23 -63 -23 l-818 0 q-37 0 -62 23 q-26 24 -26 59 l0 96 q0 35 26 58 q25 23 62 23 l818 0 ZM902 334 q19 18 19 44 q0 26 -19 44 q-19 18 -45 18 q-27 0 -45 -18 q-19 -18 -19 -44 q0 -26 19 -44 q18 -18 45 -18 q26 0 45 18 ZM956 186 q37 0 63 -23 q25 -23 25 -59 l0 -95 q0 -35 -25 -59 q-26 -23 -63 -23 l-818 0 q-37 0 -62 23 q-26 24 -26 59 l0 95 q0 36 26 59 q25 23 62 23 l818 0 ZM812 13 q18 -18 45 -18 q26 0 45 18 q19 18 19 44 q0 26 -19 44 q-19 18 -45 18 q-27 0 -45 -18 q-19 -18 -19 -44 q0 -26 19 -44 Z"></path></symbol><symbol id="xin" viewBox="0 -212 1024 1024"><path d="M843 -78 q118 0 202 84 q84 84 84 204 q0 113 -76 196 l-439 441 q-11 9 -24 9 q-14 0 -25 -9 l-439 -441 q-76 -85 -76 -196 q0 -120 84 -204 q84 -84 202 -84 q80 0 149 41 q68 42 106 111 q37 -69 105 -111 q68 -41 147 -41 Z"></path></symbol><symbol id="unlock" viewBox="0 -212 1024 1024"><path d="M733 317 q24 0 41 16 q16 17 16 41 l0 430 q0 23 -16 40 q-17 17 -41 17 l-613 0 q-24 0 -40 -17 q-17 -17 -17 -40 l0 -430 q0 -24 17 -41 q16 -16 40 -16 l613 0 ZM468 608 q18 -10 32 -27 q13 -17 18 -37 q0 -32 -23 -54 q-23 -22 -53 -22 q-32 0 -54 23 q-22 24 -22 53 q0 45 38 64 l0 95 l1 1 q0 2 2 3 q1 2 4 2 l52 0 q2 0 4 -2 q1 -2 1 -4 l0 -95 ZM569 317 l-95 0 l0 -159 q0 -99 71 -170 q70 -70 170 -70 q99 0 170 70 q70 71 70 170 l0 159 l-95 0 l0 -152 q0 -62 -42 -104 q-42 -42 -103 -42 q-62 0 -104 42 q-42 42 -42 104 l0 152 Z"></path></symbol><symbol id="shanchu-o" viewBox="0 -212 1024 1024"><path d="M919 6 q43 0 43 33 q0 18 -12 27 q-12 10 -31 10 l-46 0 l1 694 q-1 36 -24 61 q-23 25 -58 25 l-559 0 q-34 0 -57 -24 q-24 -23 -26 -58 l0 -697 l-50 0 q-18 0 -29 -10 q-11 -10 -11 -27 q0 -34 40 -34 l77 0 q5 -1 10 -1 q5 0 10 1 l261 0 l0 -48 q0 -18 13 -31 q12 -12 30 -12 q3 0 11 1 q8 -1 10 -1 q18 0 31 13 q13 13 13 30 l0 48 l353 0 ZM801 76 l-579 0 l1 663 q3 19 13 29 q9 11 27 14 l489 0 q28 -5 39 -23 q10 -18 10 -61 l0 -622 ZM430 160 q10 11 10 26 l0 488 q0 15 -10 26 q-11 11 -26 11 q-15 0 -26 -11 q-11 -11 -11 -26 l0 -488 q0 -15 11 -26 q11 -10 26 -10 q15 0 26 10 ZM646 160 q11 11 11 26 l0 488 q0 15 -11 26 q-11 11 -26 11 q-15 0 -25 -11 q-11 -11 -11 -26 l0 -488 q0 -15 11 -26 q10 -10 25 -10 q15 0 26 10 Z"></path></symbol><symbol id="liebiao" viewBox="0 -212 1024 1024"><path d="M928 118 q23 0 40 -16 q16 -15 16 -38 q0 -22 -16 -38 q-17 -15 -40 -15 l-832 0 q-23 0 -39 16 q-17 16 -17 38 q0 22 17 38 q16 16 39 16 l832 -1 ZM928 441 q23 0 40 -16 q16 -15 16 -38 q0 -22 -16 -38 q-17 -15 -40 -15 l-832 0 q-23 0 -39 16 q-17 16 -17 38 q0 22 17 38 q16 16 39 16 l832 -1 ZM928 764 q23 0 40 -16 q16 -16 16 -38 q0 -22 -16 -38 q-17 -16 -40 -16 l-832 1 q-23 0 -39 15 q-17 16 -17 38 q0 23 17 38 q16 16 39 16 l832 0 Z"></path></symbol><symbol id="calendar" viewBox="0 -212 1024 1024"><path d="M386 345 l-137 0 l0 136 l137 0 l0 -136 ZM592 481 l-136 0 l0 -136 l136 0 l0 136 ZM799 481 l-137 0 l0 -136 l137 0 l0 136 ZM386 681 l-137 0 l0 -137 l137 0 l0 137 ZM592 681 l-136 0 l0 -137 l136 0 l0 137 ZM799 681 l-137 0 l0 -137 l137 0 l0 137 ZM849 -37 q0 -18 -12 -30 q-12 -12 -29 -12 q-18 0 -30 12 q-13 12 -13 30 l0 106 q0 18 13 30 q12 12 30 12 q17 0 29 -12 q12 -12 12 -30 l0 -106 ZM280 69 q0 17 -12 29 q-12 13 -29 13 q-18 0 -30 -13 q-13 -12 -13 -29 l0 -106 q0 -18 13 -30 q12 -12 30 -12 q17 0 29 12 q12 12 12 30 l0 106 ZM999 24 l0 833 l-955 0 l0 -833 l101 0 l0 43 q0 39 28 66 q27 27 66 27 q38 0 65 -27 q27 -27 27 -66 l0 -43 l383 0 l0 43 q0 39 28 66 q27 28 66 28 q38 0 65 -28 q27 -27 27 -66 l0 -43 l99 0 ZM907 248 l-770 0 l0 516 l770 0 l0 -516 Z"></path></symbol><symbol id="time" viewBox="0 -212 1024 1024"><path d="M695 -49 q87 37 150 100 q63 63 101 150 q37 87 37 183 q0 96 -37 183 q-38 87 -101 150 q-63 63 -150 100 q-87 37 -182 37 q-96 0 -183 -37 q-88 -37 -151 -100 q-63 -63 -100 -150 q-37 -87 -37 -183 q0 -96 37 -183 q37 -87 100 -150 q63 -63 151 -100 q87 -37 183 -37 q95 0 182 37 ZM712 728 q91 -53 144 -145 q53 -91 53 -199 q0 -108 -53 -200 q-53 -91 -144 -144 q-92 -53 -200 -53 q-108 0 -199 53 q-92 53 -145 144 q-53 92 -53 200 q0 108 53 199 q53 92 145 145 q91 53 199 53 q108 0 200 -53 ZM752 359 l0 74 l-288 0 l0 -327 l74 0 l0 253 l214 0 Z"></path></symbol><symbol id="shouye" viewBox="0 -212 1024 1024"><path d="M590 23 q78 67 193 165 q114 98 186 159 q19 15 19 37 q0 20 -14 33 q-14 14 -34 14 l-95 0 l0 333 q0 20 -14 34 q-14 14 -34 14 l-142 0 q-20 0 -34 -14 q-14 -14 -14 -34 l0 -190 l-190 0 l0 190 q0 20 -14 34 q-14 14 -34 14 l-142 0 q-20 0 -34 -14 q-14 -14 -14 -34 l0 -333 l-95 0 q-20 0 -34 -14 q-14 -13 -14 -33 q0 -21 17 -37 q164 -137 459 -391 l78 67 Z"></path></symbol><symbol id="renzheng" viewBox="0 -212 1024 1024"><path d="M904 447 q0 70 -42 146 q-42 76 -102 132 q-61 57 -129 93 q-68 37 -119 37 q-51 0 -119 -37 q-68 -36 -128 -93 q-61 -56 -103 -132 q-42 -76 -42 -146 l0 -396 l39 0 q8 0 27 -2 q18 -1 65 -11 q46 -9 86 -25 q92 -38 152 -81 l23 -17 l23 17 q5 3 19 12 q14 10 53 31 q39 21 80 38 q40 16 87 25 q46 10 65 11 q18 2 26 2 l39 0 l0 396 ZM722 264 l-60 -52 l-202 234 l-107 -91 l-51 60 l166 142 l254 -293 Z"></path></symbol><symbol id="login-o" viewBox="0 -212 1024 1024"><path d="M764 -84 q60 0 102 42 q42 42 42 102 l0 648 q0 60 -42 102 q-42 42 -102 42 l-432 0 q-60 0 -102 -42 q-42 -42 -42 -102 l72 0 q0 30 21 51 q21 21 51 21 l432 0 q30 0 51 -21 q21 -21 21 -51 l0 -648 q0 -30 -21 -51 q-21 -21 -51 -21 l-432 0 q-30 0 -51 21 q-21 21 -21 51 l-72 0 q0 -60 42 -102 q42 -42 102 -42 l432 0 ZM557 420 l-405 0 q-15 0 -25 -11 q-11 -10 -11 -25 l0 -2 q0 -15 11 -26 q10 -10 25 -10 l406 0 l-143 -151 q-11 -11 -11 -27 q0 -15 11 -26 q10 -11 25 -11 q15 0 25 11 l195 205 q14 1 23 11 q9 10 9 24 l0 2 q0 14 -9 24 q-9 10 -23 11 l-195 205 q-10 11 -25 11 q-15 0 -25 -11 q-11 -11 -11 -27 q0 -16 11 -27 l142 -150 Z"></path></symbol><symbol id="duanxin-o" viewBox="0 -212 1024 1024"><path d="M268 323 q17 -17 42 -17 q24 0 41 17 q17 18 17 42 q0 25 -17 42 q-17 18 -41 18 q-25 0 -42 -18 q-18 -17 -18 -42 q0 -24 18 -42 ZM476 323 q17 -17 42 -17 q24 0 42 17 q17 18 17 42 q0 25 -17 42 q-18 18 -42 18 q-25 0 -42 -18 q-17 -17 -17 -42 q0 -24 17 -42 ZM687 323 q17 -17 42 -17 q24 0 42 17 q17 18 17 42 q0 25 -17 42 q-18 18 -42 18 q-25 0 -42 -18 q-17 -17 -17 -42 q0 -24 17 -42 ZM390 726 q73 14 122 14 q128 0 237 -51 q109 -50 172 -137 q63 -87 64 -189 q0 -101 -63 -188 q-64 -86 -173 -137 q-109 -50 -237 -50 q-128 0 -237 50 q-109 51 -172 137 q-64 87 -64 189 q0 70 32 135 q31 65 89 117 q22 19 49 37 q15 10 33 6 q17 -3 26 -18 q10 -15 7 -33 q-4 -17 -19 -26 q-12 -7 -39 -29 q-92 -83 -95 -189 q0 -80 52 -147 q52 -67 141 -106 q89 -39 195 -39 q106 0 195 39 q89 39 141 106 q52 67 52 146 q0 80 -52 147 q-52 67 -141 106 q-89 39 -195 39 q-33 0 -128 -16 q-22 -3 -37 12 l-73 75 q-13 12 -12 29 q0 18 12 30 q12 12 30 12 q17 0 29 -12 l59 -59 Z"></path></symbol><symbol id="sorting-asc" viewBox="0 -212 1024 1024"><path d="M434 647 q-6 0 -9 5 q-3 5 0 10 q27 48 79 136 q3 5 9 5 q5 0 8 -5 q62 -107 78 -136 q3 -5 1 -10 q-3 -5 -9 -5 l-157 0 ZM709 832 q15 0 22 -13 q6 -12 -1 -23 q-8 -15 -96 -168 q-89 -152 -98 -168 q-8 -13 -21 -13 q-14 0 -21 13 q-156 268 -194 335 q-8 14 0 25 q7 12 21 12 l388 0 Z"></path></symbol><symbol id="yanjing" viewBox="0 -212 1024 1024"><path d="M511 -29 q78 0 147 23 q68 24 114 58 q46 35 85 82 q39 48 60 86 q21 39 38 82 q17 43 21 58 q4 15 6 23 q-3 9 -9 24 q-6 15 -28 57 q-22 43 -47 82 q-25 39 -66 86 q-41 48 -86 82 q-45 34 -107 57 q-62 24 -128 24 q-74 0 -140 -24 q-66 -23 -112 -57 q-46 -34 -85 -82 q-40 -47 -63 -86 q-23 -39 -41 -82 q-18 -42 -23 -57 q-5 -15 -7 -24 l4 -14 q4 -14 14 -38 q10 -24 25 -55 q14 -30 36 -65 q22 -34 49 -68 q26 -34 62 -65 q36 -31 77 -55 q41 -23 94 -38 q53 -14 110 -14 ZM511 677 q122 0 208 -86 q86 -86 86 -208 q0 -121 -86 -208 q-86 -86 -208 -86 q-122 0 -208 86 q-86 87 -86 208 q0 122 86 208 q86 86 208 86 ZM627 267 q48 48 48 116 q0 68 -48 116 q-48 48 -116 48 q-68 0 -116 -48 q-48 -48 -48 -116 q0 -68 48 -116 q48 -47 116 -47 q68 0 116 47 ZM601 348 q15 -15 15 -37 q0 -22 -15 -38 q-16 -15 -37 -15 q-22 0 -37 15 q-16 16 -16 38 q0 22 16 37 q15 16 37 16 q21 0 37 -16 Z"></path></symbol><symbol id="ping" viewBox="0 -212 1024 1024"><path d="M901 443 q81 0 81 -59 q0 -59 -81 -59 l-771 0 q-42 0 -65 16 q-23 17 -23 43 q0 26 23 42 q23 17 65 17 l771 0 Z"></path></symbol><symbol id="lingdang" viewBox="0 -212 1024 1024"><path d="M812 670 l-603 1 l-100 -1 q3 -57 30 -107 q26 -49 70 -83 l0 -209 q0 -90 58 -160 q57 -69 143 -87 l0 -5 q0 -41 30 -71 q29 -29 71 -29 q41 0 71 29 q29 30 29 71 l0 5 q87 18 144 87 q57 70 57 160 l0 209 q44 34 71 83 q27 50 29 107 l-100 0 ZM507 852 q-49 0 -85 -33 q-37 -32 -43 -79 l263 0 q-6 47 -42 79 q-37 33 -86 33 l-7 0 Z"></path></symbol><symbol id="bank" viewBox="0 -212 1024 1024"><path d="M40 113 l0 68 l67 0 q0 13 11 23 q11 10 26 10 l804 0 q15 0 26 -10 q11 -10 11 -23 l67 0 l0 -68 l-506 -202 l-506 202 ZM175 653 l-31 0 q-15 0 -26 10 q-11 10 -11 24 l0 33 l878 0 l0 -33 q0 -14 -11 -24 q-11 -10 -26 -10 l-31 0 l0 -405 l-135 0 l0 405 l-67 0 l0 -405 l-135 0 l0 405 l-68 0 l0 -405 l-135 0 l0 405 l-67 0 l0 -405 l-135 0 l0 405 ZM76 754 q-15 0 -25 10 q-11 10 -11 24 l0 68 l1012 0 l0 -68 q0 -14 -10 -24 q-11 -10 -26 -10 l-940 0 Z"></path></symbol><symbol id="zhanghao-o" viewBox="0 -212 1024 1024"><path d="M670 407 q127 48 204 159 q77 111 71 250 q0 16 -11 27 q-11 12 -28 12 q-16 0 -28 -11 q-12 -11 -12 -28 q0 -97 -47 -179 q-47 -81 -128 -128 q-82 -47 -179 -47 l-8 0 q-97 0 -178 47 q-82 47 -129 128 q-47 82 -47 179 q0 16 -11 28 q-12 12 -29 12 q-15 0 -27 -12 q-12 -11 -12 -28 q0 -138 77 -250 q76 -111 199 -155 q-52 -40 -83 -100 q-32 -59 -32 -125 q0 -114 82 -195 q81 -80 194 -80 q115 0 196 81 q80 81 80 194 q0 66 -31 123 q-31 58 -83 98 ZM315 186 q0 80 57 136 q56 57 136 57 q80 0 137 -57 q56 -56 56 -136 q0 -80 -56 -137 q-57 -56 -137 -56 q-80 0 -136 56 q-57 57 -57 137 Z"></path></symbol><symbol id="xiangqing1-o" viewBox="0 -212 1024 1024"><path d="M360 28 q-69 29 -122 82 q-54 54 -83 124 q-31 71 -31 150 q0 79 31 150 q29 70 83 123 q53 54 122 83 q72 30 151 30 q78 0 150 -30 q69 -29 123 -83 q53 -53 82 -123 q31 -71 31 -150 q0 -79 -31 -150 q-29 -70 -82 -124 q-54 -53 -123 -82 q-72 -30 -150 -30 q-79 0 -151 30 ZM511 -83 q94 0 181 37 q86 37 149 99 q62 63 99 149 q37 87 37 182 q0 95 -37 181 q-37 87 -99 149 q-63 63 -149 100 q-87 37 -181 37 q-95 0 -181 -37 q-87 -37 -149 -100 q-63 -62 -100 -149 q-37 -86 -37 -181 q0 -95 37 -182 q37 -86 100 -149 q62 -62 149 -99 q86 -37 181 -37 ZM279 341 q17 -17 42 -17 q25 0 43 17 q17 18 17 43 q0 25 -17 42 q-18 18 -43 18 q-25 0 -42 -18 q-18 -17 -18 -42 q0 -25 18 -43 ZM469 341 q17 -17 42 -17 q24 0 42 17 q17 18 17 43 q0 25 -17 42 q-18 18 -42 18 q-25 0 -42 -18 q-18 -17 -18 -42 q0 -25 18 -43 ZM658 341 q17 -17 42 -17 q25 0 43 17 q17 18 17 43 q0 25 -17 42 q-18 18 -43 18 q-25 0 -42 -18 q-18 -17 -18 -42 q0 -25 18 -43 Z"></path></symbol><symbol id="zhanghao-copy" viewBox="0 -212 1024 1024"><path d="M982 817 q0 -5 -1 -15 q-1 -10 -7 -37 q-7 -26 -19 -50 q-12 -23 -37 -49 q-26 -25 -61 -40 q-37 -18 -66 -22 q-30 -4 -73 -22 q-88 -36 -111 -44 l8 -59 l9 -2 q9 -3 23 -12 q14 -9 28 -22 q14 -13 26 -37 q12 -23 17 -51 q19 5 32 -17 q12 -21 12 -42 q0 -4 1 -18 q1 -14 2 -25 q0 -11 -1 -23 q-2 -12 -8 -18 q-6 -6 -16 -4 q14 -52 14 -118 q-3 -32 -17 -61 q-15 -28 -43 -54 q-29 -26 -77 -42 q-49 -16 -112 -19 q-63 0 -118 22 q-2 0 -15 -1 q-13 0 -25 -1 l-27 0 q-14 1 -24 3 q-10 2 -12 6 q-3 8 1 32 q3 24 -1 27 q-15 13 -22 23 q-8 11 -9 17 q-2 6 -2 18 q-1 13 -3 23 q0 22 14 125 q-12 -2 -19 4 q-7 6 -7 17 q-1 12 0 23 q0 12 2 25 q2 14 2 19 q0 21 13 42 q12 22 31 17 q4 26 19 49 q14 23 29 36 q15 13 34 23 q18 10 25 12 q7 3 11 4 l7 59 l-110 44 q-46 14 -73 18 q-28 4 -66 19 q-33 14 -57 40 q-25 27 -36 51 q-11 25 -17 53 q-7 28 -7 38 q-1 10 -1 16 q0 16 14 26 q13 11 30 11 l852 0 q17 0 31 -11 q13 -10 13 -26 Z"></path></symbol><symbol id="10" viewBox="0 -212 1024 1024"><path d="M960 310 q-19 -6 -61 -15 q-42 -8 -69 -18 q-28 -10 -41 -28 q-6 -7 -5 -35 q0 -8 5 -13 q27 -23 44 -62 q16 -38 16 -78 q0 -34 -2 -59 q-3 -25 -11 -51 q-8 -25 -21 -41 q-13 -16 -35 -26 q-22 -10 -53 -10 q-89 0 -112 83 q37 23 59 66 q29 59 29 173 q0 57 -22 110 q-18 42 -47 74 q8 4 17 7 q18 7 64 17 q31 6 47 10 q16 4 42 13 q26 10 45 23 q19 13 32 32 q16 20 28 52 l51 0 l0 -224 ZM140 483 q-15 22 -25 51 l-51 0 l0 -226 q19 -6 62 -14 q42 -8 70 -18 q27 -10 40 -27 q5 -7 5 -35 q0 -8 -6 -13 q-26 -23 -42 -61 q-17 -38 -17 -78 q-1 -34 2 -60 q2 -25 10 -51 q7 -25 20 -41 q13 -16 36 -27 q23 -10 54 -10 q87 0 111 83 q-16 10 -28 22 q-38 38 -51 104 q-10 48 -9 116 q1 55 23 108 q19 43 47 74 q-6 3 -16 7 q-20 7 -65 15 q-32 7 -49 11 q-17 4 -43 13 q-26 10 -45 24 q-19 14 -33 33 ZM883 707 q-8 -140 -46 -190 q-17 -23 -55 -38 q-38 -14 -75 -19 q-37 -5 -74 -18 q-37 -13 -52 -34 q-6 -9 -5 -40 q0 -8 6 -14 q29 -27 47 -70 q18 -42 18 -87 q0 -38 -2 -67 q-3 -28 -11 -57 q-9 -28 -23 -46 q-14 -18 -39 -29 q-25 -11 -59 -11 q-35 0 -60 11 q-25 11 -39 29 q-15 19 -23 47 q-9 29 -11 57 q-3 29 -2 68 q0 44 18 86 q18 43 48 69 q6 6 6 14 q0 32 -6 40 q-15 21 -52 33 q-38 13 -75 18 q-38 6 -76 20 q-38 14 -55 38 q-36 51 -44 190 q0 8 6 14 q5 6 13 6 l703 0 q8 0 14 -6 q5 -6 5 -14 Z"></path></symbol><symbol id="loudong" viewBox="0 -212 1024 1024"><path d="M984 450 q0 -15 -11 -27 q-11 -11 -26 -11 l-132 0 l0 -173 l101 -102 q11 -11 11 -27 q0 -15 -11 -26 q-11 -11 -26 -11 q-16 0 -27 11 l-102 101 l-498 0 l-102 -101 q-11 -11 -26 -11 q-16 0 -27 11 q-12 11 -12 26 q0 16 12 27 l101 102 l0 174 l-132 0 q-15 0 -26 11 q-11 11 -11 26 q0 16 11 27 q11 11 26 11 l132 0 q0 93 35 162 l-119 133 q-10 11 -9 28 q0 14 12 26 q11 10 25 10 q16 0 28 -13 l108 -122 l9 9 q12 10 26 19 q23 14 39 23 q24 12 52 19 q31 8 59 8 l0 -529 l75 0 l0 528 q30 0 57 -7 q31 -8 49 -17 q17 -8 39 -22 q20 -13 25 -17 q7 -5 9 -7 l116 117 q11 11 27 11 q15 0 26 -11 q11 -11 11 -27 q0 -15 -11 -26 l-122 -124 q40 -69 40 -171 l132 0 q15 0 26 -11 q11 -11 11 -27 ZM701 110 q0 -79 -55 -133 q-56 -56 -134 -56 q-78 0 -133 55 q-56 56 -56 134 l378 0 Z"></path></symbol><symbol id="shouquan01" viewBox="0 -212 1024 1024"><path d="M401 308 q-15 -46 -15 -94 q0 -123 87 -210 q87 -87 210 -87 q123 0 210 87 q87 87 87 210 q0 123 -87 210 q-87 87 -210 87 q-48 0 -94 -15 l-67 68 l-144 0 l0 144 l-144 0 l0 144 l-189 0 l0 -188 l356 -356 ZM709 286 q42 0 71 -29 q29 -29 29 -71 q0 -41 -29 -71 q-29 -29 -70 -29 q-42 0 -71 29 q-30 30 -30 71 q0 42 30 71 q29 29 70 29 Z"></path></symbol><symbol id="zhanghao-copy1" viewBox="0 -212 1024 1024"><path d="M347 321 q-69 -68 -69 -166 q0 -97 69 -166 q68 -68 165 -68 q97 0 166 68 q68 69 68 166 q0 98 -68 166 q-69 69 -166 69 q-97 0 -165 -69 ZM621 516 q60 9 124 28 q63 20 116 47 q52 27 86 66 q33 39 33 84 l0 117 l-936 0 l0 -117 q0 -45 34 -84 q33 -39 86 -66 q52 -27 116 -47 q63 -19 123 -28 q60 -9 109 -9 q49 0 109 9 Z"></path></symbol><symbol id="quanping-o" viewBox="0 -212 1024 1024"><path d="M671 266 q-8 9 -20 9 q-12 0 -21 -9 q-9 -8 -9 -21 q0 -12 9 -20 l251 -251 l-138 0 q-9 0 -16 -6 q-8 -6 -9 -16 l0 -15 q0 -9 7 -16 q6 -6 15 -6 l210 1 l12 -1 q9 0 15 7 q5 5 5 15 l0 11 l-1 212 q0 9 -6 14 q-7 5 -16 5 l-15 0 q-9 1 -15 -6 q-6 -7 -6 -16 l1 -142 l-253 251 ZM354 503 q8 -8 20 -8 q12 0 21 8 q8 9 8 21 q0 12 -8 21 l-252 250 l139 1 q9 -1 16 5 q7 6 9 17 l0 15 q0 9 -6 15 q-7 7 -16 7 l-211 -1 l-12 0 q-9 1 -15 -6 q-5 -5 -5 -15 l0 -11 l1 -213 q0 -8 7 -14 q6 -5 15 -5 l16 0 q9 0 15 6 q6 7 6 16 l-1 142 l253 -251 ZM982 833 q0 10 -5 15 q-6 7 -15 6 l-11 0 l-211 1 q-9 0 -15 -7 q-7 -6 -7 -15 l0 -15 q1 -11 9 -17 q7 -6 16 -5 l138 -1 l-251 -250 q-9 -9 -9 -21 q0 -12 9 -21 q9 -8 21 -8 q12 0 20 8 l253 252 l-1 -143 q0 -9 6 -16 q6 -6 15 -6 l15 0 q9 0 16 5 q6 6 6 14 l1 213 l0 11 ZM395 225 q9 9 9 21 q0 12 -9 20 q-9 9 -21 9 q-12 0 -21 -8 l-252 -251 l1 142 q0 9 -6 15 q-6 7 -15 7 l-16 0 q-9 -1 -15 -6 q-7 -5 -7 -14 l-1 -212 l0 -11 q0 -10 5 -15 q6 -7 15 -7 l11 1 l212 -1 q9 0 16 6 q6 7 6 16 l0 15 q-2 10 -9 16 q-7 6 -16 6 l-138 0 l251 251 Z"></path></symbol><symbol id="increase" viewBox="0 -212 1024 1024"><path d="M935 339 q20 0 35 14 q14 15 14 35 q0 20 -14 34 q-15 15 -35 15 l-371 0 l0 371 q0 20 -14 34 q-15 15 -35 15 q-21 0 -35 -15 q-14 -14 -14 -34 l0 -371 l-371 0 q-21 0 -35 -15 q-14 -14 -14 -34 q0 -20 14 -35 q14 -14 35 -14 l371 0 l0 -371 q0 -20 14 -35 q14 -14 35 -14 q20 0 35 14 q14 15 14 35 l0 371 l371 0 Z"></path></symbol><symbol id="xuanze" viewBox="0 -212 1024 1024"><path d="M695 -49 q87 38 150 101 q63 63 100 150 q37 87 37 182 q0 95 -37 182 q-38 87 -100 150 q-63 63 -150 100 q-87 38 -183 38 q-95 0 -182 -38 q-87 -37 -150 -100 q-63 -62 -100 -149 q-38 -87 -38 -183 q0 -95 38 -182 q37 -87 100 -150 q62 -63 149 -101 q87 -37 183 -37 q96 0 183 37 ZM662 534 q62 -62 62 -150 q0 -88 -62 -150 q-62 -62 -150 -62 q-88 0 -150 62 q-62 62 -62 150 q0 88 62 150 q62 62 150 62 q88 0 150 -62 Z"></path></symbol><symbol id="bianji3" viewBox="0 -212 1024 1024"><path d="M650 89 l154 154 l-554 554 l-154 51 l-51 -51 l51 -154 l554 -554 ZM957 -13 q22 21 22 51 q0 30 -22 51 l-102 103 l-154 -154 l103 -102 q21 -21 51 -21 q30 0 51 21 l51 51 Z"></path></symbol><symbol id="table" viewBox="0 -212 1024 1024"><path d="M931 -22 q19 0 32 13 q13 14 13 32 l0 722 q0 18 -13 31 q-13 14 -32 14 l-838 0 q-19 0 -32 -14 q-13 -13 -13 -31 l0 -722 q0 -18 13 -32 q13 -13 32 -13 l838 0 ZM339 572 l-230 0 l0 158 l230 0 l0 -158 ZM339 362 l-230 0 l0 158 l230 0 l0 -158 ZM339 152 l-230 0 l0 158 l230 0 l0 -158 ZM627 572 l-230 0 l0 158 l230 0 l0 -158 ZM627 362 l-230 0 l0 158 l230 0 l0 -158 ZM627 152 l-230 0 l0 158 l230 0 l0 -158 ZM915 572 l-230 0 l0 158 l230 0 l0 -158 ZM915 362 l-230 0 l0 158 l230 0 l0 -158 ZM915 152 l-230 0 l0 158 l230 0 l0 -158 Z"></path></symbol><symbol id="map" viewBox="0 -212 1024 1024"><path d="M395 557 q-133 -181 -154 -309 q-3 -24 -3 -39 q-1 -121 84 -207 q82 -82 196 -82 q115 0 197 82 q85 85 84 206 q0 15 -4 40 q-21 126 -154 308 q-2 3 -5 7 q-45 57 -88 92 l-30 25 l-30 -25 q-44 -36 -87 -92 l-6 -6 ZM436 142 q-35 35 -35 83 q0 48 35 82 q34 35 83 35 q48 0 82 -35 q34 -34 34 -82 q0 -48 -34 -83 q-34 -34 -82 -34 q-49 0 -83 34 ZM973 147 l0 608 l-319 94 l-326 -95 l-233 78 l-47 16 l0 -602 l140 -35 l0 2 q0 24 3 43 l-96 25 l0 505 l233 -78 l326 94 l273 -81 l0 -512 l-96 33 q3 -20 4 -54 l92 -27 l32 -10 l14 -4 Z"></path></symbol><symbol id="ui" viewBox="0 -212 1024 1024"><path d="M876 107 q24 14 41 43 q17 29 17 57 l0 353 q0 27 -17 56 q-17 30 -41 44 l-306 177 q-24 13 -58 13 q-34 0 -57 -13 l-306 -177 q-24 -14 -41 -44 q-17 -29 -17 -56 l0 -353 q0 -28 17 -57 q17 -29 41 -43 l306 -177 q23 -13 57 -13 q34 0 58 13 l306 177 ZM613 228 q0 -20 -14 -34 q-15 -14 -35 -14 q-20 0 -34 14 q-14 14 -14 34 l0 155 q0 45 -31 76 q-32 32 -76 32 q-45 0 -76 -32 q-32 -31 -32 -76 l0 -155 q0 -20 -14 -34 q-14 -14 -34 -14 q-20 0 -34 14 q-14 14 -14 34 l0 155 q0 85 60 144 q59 60 144 60 q84 0 144 -60 q60 -59 60 -144 l0 -155 ZM820 228 q0 -20 -14 -34 q-14 -14 -34 -14 q-20 0 -34 14 q-15 14 -15 34 l0 311 q0 20 15 34 q14 14 34 14 q20 0 34 -14 q14 -14 14 -34 l0 -311 Z"></path></symbol><symbol id="form" viewBox="0 -212 1024 1024"><path d="M861 90 q16 0 26 9 q9 10 9 26 l0 699 q0 15 -9 24 q-10 10 -26 10 l-698 0 q-16 0 -25 -10 q-10 -9 -10 -24 l0 -699 q0 -16 10 -26 q9 -9 25 -9 l69 0 q16 0 26 9 q9 10 9 26 q0 16 -9 25 q-10 10 -26 10 l-34 0 l0 629 l628 0 l0 -629 l-34 0 q-16 0 -25 -10 q-10 -9 -10 -25 q0 -16 10 -26 q9 -9 25 -9 l69 0 ZM337 334 q-15 0 -25 -10 q-10 -9 -10 -25 q0 -15 10 -25 q10 -9 25 -9 l350 0 q15 0 25 9 q10 10 10 25 q0 16 -10 25 q-10 10 -25 10 l-350 0 ZM372 160 q-15 0 -25 -10 q-10 -9 -10 -25 q0 -16 10 -26 q10 -9 25 -9 l4 0 q0 -5 -2 -18 q-2 -12 -2 -17 q0 -58 41 -99 q41 -41 99 -41 q58 0 99 41 q41 41 41 99 q0 5 -2 17 q-2 13 -2 18 l4 0 q15 0 25 9 q10 10 10 26 q0 16 -10 25 q-10 10 -25 10 l-280 0 ZM463 5 q-21 21 -21 50 q0 19 11 35 l118 0 q11 -16 11 -35 q0 -29 -20 -50 q-21 -20 -50 -20 q-29 0 -49 20 ZM337 509 q-15 0 -25 -10 q-10 -9 -10 -25 q0 -16 10 -26 q10 -9 25 -9 l350 0 q15 0 25 9 q10 10 10 26 q0 16 -10 25 q-10 10 -25 10 l-350 0 ZM337 684 q-15 0 -25 -10 q-10 -9 -10 -25 q0 -16 10 -26 q10 -9 25 -9 l350 0 q15 0 25 9 q10 10 10 26 q0 16 -10 25 q-10 10 -25 10 l-350 0 Z"></path></symbol><symbol id="ok" viewBox="0 -212 1024 1024"><path d="M512 -60 q90 0 173 35 q83 36 143 96 q59 60 95 142 q35 83 35 173 q0 91 -35 173 q-36 83 -95 142 q-60 60 -143 95 q-83 36 -173 36 q-91 0 -173 -36 q-83 -35 -142 -95 q-60 -59 -95 -142 q-36 -82 -36 -173 q0 -90 36 -173 q35 -82 95 -142 q59 -60 142 -96 q82 -35 173 -35 ZM789 262 q6 -6 6 -15 q0 -8 -6 -14 l-44 -44 q-6 -6 -14 -6 q-9 0 -15 6 l-274 275 l-130 -130 q-6 -6 -14 -6 q-9 0 -15 6 l-44 44 q-6 6 -6 14 q0 9 6 15 l188 188 q6 6 15 6 q8 0 14 -6 l333 -333 Z"></path></symbol><symbol id="fanhui" viewBox="0 -212 1024 1024"><path d="M788 314 q-16 -12 -53 -29 q-37 -17 -80 -26 q-56 -11 -165 -20 l0 -190 l-453 321 l453 320 l0 -188 l43 -1 q44 -1 110 8 q66 10 109 30 q45 20 87 53 q41 33 60 54 q18 21 30 37 q15 21 52 81 l0 -27 q1 -27 -5 -79 q-6 -51 -19 -100 q-20 -77 -64 -141 q-45 -64 -89 -91 l-16 -12 Z"></path></symbol><symbol id="bianji1-o" viewBox="0 -212 1024 1024"><path d="M933 340 q9 10 8 22 l0 370 q0 50 -35 85 q-35 36 -85 36 l-658 0 q-50 0 -85 -36 q-35 -35 -35 -85 l0 -658 q0 -50 35 -85 q35 -35 85 -35 l398 0 q13 0 23 9 q9 9 9 22 q0 14 -9 23 q-10 10 -23 10 l-398 0 q-24 0 -41 17 q-17 17 -17 40 l0 658 q0 24 17 41 q17 17 41 17 l658 0 q24 0 41 -17 q16 -17 16 -41 l0 -370 q0 -13 10 -23 q9 -9 23 -9 q13 0 22 9 ZM983 -38 q0 20 -14 34 l-442 442 l-75 25 q-8 2 -14 -4 q-6 -5 -3 -13 l24 -75 l443 -442 q13 -14 33 -14 q19 0 33 14 q14 14 15 33 Z"></path></symbol><symbol id="sorting" viewBox="0 -212 1024 1024"><path d="M291 454 q-10 11 -10 26 q0 16 10 27 l192 225 q9 11 23 11 q13 0 22 -11 l192 -225 q10 -11 10 -27 q0 -15 -10 -26 q-9 -11 -23 -11 l-383 0 q-14 0 -23 11 ZM720 323 q10 -11 10 -26 q0 -15 -10 -26 l-192 -226 q-9 -11 -22 -11 q-14 0 -23 11 l-192 226 q-10 11 -10 26 q0 15 10 26 q9 11 23 11 l383 0 q14 0 23 -11 Z"></path></symbol><symbol id="checkbox" viewBox="0 -212 1024 1024"><path d="M827 805 q44 0 75 -31 q31 -30 31 -74 l0 -631 q0 -43 -31 -74 q-31 -31 -75 -31 l-630 0 q-44 0 -74 31 q-31 31 -31 74 l0 631 q0 44 31 74 q30 31 74 31 l630 0 ZM776 223 q6 7 6 17 q0 11 -8 18 l-345 299 q-8 7 -18 6 q-11 0 -18 -8 l-137 -150 q-7 -7 -6 -18 q1 -10 9 -17 q7 -7 18 -7 q11 1 18 9 l119 131 l326 -282 q8 -7 19 -7 q10 1 17 9 Z"></path></symbol><symbol id="check" viewBox="0 -212 1024 1024"><path d="M781 -36 q62 0 107 44 q44 44 44 106 l0 538 q0 62 -44 106 q-45 45 -107 45 l-539 0 q-62 0 -106 -45 q-44 -44 -44 -106 l0 -538 q0 -62 44 -106 q44 -44 106 -44 l539 0 Z"></path></symbol><symbol id="xin-o" viewBox="0 -212 1024 1024"><path d="M766 -32 q107 0 182 76 q75 76 75 183 q0 102 -68 176 l-395 397 q-10 9 -22 9 q-12 0 -22 -9 l-395 -397 q-69 -75 -69 -176 q0 -107 76 -183 q75 -76 182 -76 q72 0 134 37 q61 38 94 100 q34 -62 95 -100 q61 -37 133 -37 ZM906 361 q54 -57 53 -134 q0 -81 -56 -138 q-57 -56 -137 -56 q-64 0 -115 38 q-51 38 -70 98 q-12 28 -43 28 q-14 0 -25 -8 q-12 -8 -17 -21 q-20 -59 -71 -97 q-51 -38 -115 -38 q-80 0 -136 57 q-57 57 -57 137 q0 78 53 134 l368 374 l368 -374 Z"></path></symbol><symbol id="gongdanguanli-o" viewBox="0 -212 1024 1024"><path d="M818 519 q7 4 3 13 l-45 77 q-4 9 -13 4 l-55 -22 q-11 9 -38 22 l-9 57 q0 3 -3 6 q-4 3 -8 3 l-88 0 q-11 0 -11 -9 l-9 -57 q-27 -13 -38 -22 l-55 22 q-9 3 -14 -2 l-44 -76 q-4 -8 2 -13 l47 -38 q-2 -6 -2 -21 q0 -5 1 -12 q1 -7 1 -10 l-47 -35 q-9 -9 -4 -13 l44 -77 q7 -7 16 -4 l53 22 q29 -19 37 -22 l9 -59 q0 -3 4 -6 q4 -3 7 -3 l89 0 q4 0 7 3 q3 4 2 8 l9 57 q26 13 37 22 l56 -22 q8 -3 13 2 l44 77 q4 7 -2 13 l-47 37 q3 6 3 22 q0 4 -1 11 q-2 7 -2 10 l51 35 ZM658 516 q23 -22 23 -53 q0 -31 -23 -54 q-23 -23 -54 -23 q-32 0 -55 23 q-23 23 -23 54 q0 31 23 53 q23 23 55 23 q31 0 54 -23 ZM884 74 q39 0 66 27 q27 27 27 66 l0 589 q0 39 -27 66 q-27 27 -66 27 l-558 0 q-39 0 -66 -27 q-27 -27 -27 -66 l0 -589 q0 -39 27 -66 q27 -27 66 -27 l558 0 ZM915 167 q0 -13 -9 -22 q-9 -9 -22 -9 l-558 0 q-13 0 -22 9 q-9 9 -9 22 l0 589 q0 13 9 22 q9 9 22 9 l558 0 q13 0 22 -9 q9 -9 9 -22 l0 -589 ZM202 694 l-62 0 q-39 0 -66 -27 q-27 -27 -27 -66 l0 -589 q0 -39 27 -66 q27 -27 66 -27 l558 0 q39 0 66 27 q27 27 27 66 l0 31 l-62 0 l0 -31 q0 -13 -9 -22 q-9 -9 -22 -9 l-558 0 q-13 0 -22 9 q-9 9 -9 22 l0 589 q0 13 9 22 q9 9 22 9 l62 0 l0 62 Z"></path></symbol><symbol id="shezhi" viewBox="0 -212 1024 1024"><path d="M948 320 q9 1 18 7 q8 7 13 16 q5 9 5 19 l0 47 q0 15 -10 27 q-11 12 -26 14 l-75 12 q-10 1 -22 14 q-13 14 -22 27 q-9 14 -14 23 q-6 12 -4 29 q2 17 12 29 l45 61 q8 11 7 27 q-1 17 -12 28 l-33 33 q-5 5 -12 8 q-7 3 -14 3 q-8 1 -15 -1 q-8 -1 -14 -6 l-61 -44 q-17 -8 -42 -6 q-26 3 -44 10 q-12 4 -22 17 q-11 14 -13 29 l-12 74 q0 6 -2 10 q-2 4 -5 8 q-4 5 -7 8 q-4 3 -8 5 l-10 4 q-5 2 -10 2 l-47 0 q-9 0 -18 -5 q-9 -5 -15 -14 q-7 -8 -8 -18 l-12 -74 q-2 -13 -24 -32 q-23 -18 -40 -26 q-7 -4 -18 -5 q-11 0 -21 3 q-10 3 -19 10 l-60 44 q-12 9 -28 8 q-17 -1 -28 -12 l-33 -33 q-11 -11 -12 -28 q-1 -16 8 -27 l45 -61 q2 -3 4 -8 q1 -5 1 -10 l0 -25 q-1 -6 -2 -13 l-2 -12 q-1 -6 -4 -11 l-2 -8 q-2 -7 -9 -15 q-8 -8 -17 -14 q-10 -5 -20 -6 l-74 -12 q-15 -2 -26 -14 q-11 -12 -11 -27 l0 -47 q0 -8 4 -15 q3 -7 8 -13 q4 -5 11 -9 q6 -4 14 -5 l74 -11 q10 -2 23 -15 q13 -13 22 -27 q9 -13 13 -22 q6 -12 4 -29 q-2 -16 -11 -29 l-45 -61 q-6 -8 -7 -19 q-2 -10 2 -20 q3 -9 9 -16 l33 -33 q11 -11 28 -12 q16 -1 28 7 l60 45 q18 8 44 5 q25 -3 43 -9 q7 -2 15 -10 q8 -7 14 -17 q5 -9 6 -19 l12 -75 q1 -9 8 -18 q6 -8 15 -13 q9 -5 18 -5 l47 0 q15 0 28 10 q12 11 14 26 l12 75 q1 10 14 22 q13 13 27 22 q13 9 23 14 q11 6 28 4 q17 -2 29 -12 l61 -45 q12 -8 29 -7 q16 1 26 12 l34 33 q6 7 9 16 q3 10 2 20 q-2 11 -7 19 l-45 61 q-8 18 -5 43 q3 25 9 43 q5 12 18 22 q13 11 28 14 l75 11 ZM516 571 q77 0 131 -55 q54 -54 54 -131 q0 -76 -54 -131 q-54 -54 -131 -54 q-77 0 -131 54 q-55 55 -55 131 q0 77 55 131 q54 55 131 55 Z"></path></symbol><symbol id="hook" viewBox="0 -212 1024 1024"><path d="M958 75.95 q20 21 20 50 q-1 29 -21 49 l-486 488 q-2 2 -8 6 q-5 12 -14 21 q-20 21 -47 21 q-27 1 -46 -18 l-292 -300 q-18 -19 -17 -47 q0 -28 20 -49 q20 -20 48 -21 q27 -1 45 18 l239 246 l463 -465 q20 -20 49 -20 q28 1 47 21 Z"></path></symbol><symbol id="zizhanghao-o" viewBox="0 -212 1024 1024"><path d="M853 679.96 q24 10 39 32 q14 23 14 51 q0 37 -26 63 q-27 26 -64 25 q-37 0 -63 -27 q-26 -26 -25 -63 q0 -29 17 -52 q17 -23 45 -32 q-9 -98 -77 -168 q-69 -70 -166 -82 l-1 170 q26 10 43 33 q16 23 15 51 q0 37 -26 63 q-27 26 -64 25 q-37 0 -63 -27 q-26 -26 -25 -62 q0 -28 16 -51 q16 -22 41 -32 l1 -171 q-98 10 -167 80 q-70 71 -80 169 q25 10 40 32 q15 23 15 50 q-1 37 -27 63 q-27 26 -64 25 q-37 0 -63 -27 q-26 -26 -25 -62 q0 -30 17 -53 q17 -23 45 -32 q10 -123 98 -211 q88 -87 211 -98 l0 -29 q-76 -12 -127 -71 q-51 -59 -50 -138 q1 -87 63 -148 q62 -61 149 -61 q87 1 149 63 q61 63 60 150 q0 78 -52 136 q-52 59 -128 70 l0 29 q123 12 210 102 q87 90 95 215 ZM202 782.96 q11 0 19 -8 q8 -7 8 -18 q0 -11 -7 -19 q-8 -8 -19 -8 q-11 0 -19 7 q-8 8 -8 19 q0 11 8 19 q7 8 18 8 ZM413 228.96 q43 44 104 44 q61 1 105 -42 q43 -43 44 -104 q0 -61 -43 -105 q-43 -43 -104 -44 q-61 0 -104 43 q-44 43 -44 104 q-1 61 42 104 ZM515 706.96 q11 0 19 -8 q8 -8 8 -18 q0 -11 -7 -19 q-8 -8 -19 -8 q-11 0 -19 7 q-8 8 -8 19 q0 11 8 19 q7 8 18 8 ZM817 787.96 q10 0 18 -8 q8 -7 8 -18 q0 -12 -7 -20 q-8 -7 -19 -7 q-11 0 -19 7 q-8 8 -8 19 q0 11 8 19 q8 8 19 8 Z"></path></symbol><symbol id="bank-o" viewBox="0 -212 1024 1024"><path d="M902 713 q10 0 17 -7 q6 -6 6 -16 q0 -9 -6 -15 q-7 -6 -17 -6 l-39 0 l0 -410 l79 0 q24 -1 34 -21 q7 -14 2 -29 q-5 -15 -19 -22 l-430 -215 q-17 -8 -34 0 l-427 213 q-24 11 -24 36 q0 15 11 26 q11 12 27 12 l79 0 l0 410 l-40 0 q-9 0 -15 6 q-7 7 -7 16 q0 9 7 15 q6 7 15 7 l781 0 ZM370 259 l0 410 l-133 0 l0 -410 l133 0 ZM578 259 l0 410 l-133 0 l0 -410 l133 0 ZM787 259 l0 410 l-133 0 l0 -410 l133 0 ZM241 183 l271 -135 l271 135 l-542 0 ZM942 811 q16 0 27 -11 q11 -11 11 -27 q0 -15 -11 -26 q-11 -11 -27 -11 l-860 0 q-16 0 -27 11 q-11 11 -11 26 q0 16 11 27 q11 11 27 11 l860 0 Z"></path></symbol><symbol id="shanchu1" viewBox="0 -212 1024 1024"><path d="M692 -44 q86 37 149 99 q62 63 99 149 q36 86 36 180 q0 94 -36 180 q-37 86 -99 148 q-63 63 -149 99 q-86 37 -180 37 q-94 0 -180 -37 q-86 -36 -148 -99 q-63 -62 -99 -148 q-37 -86 -37 -180 q0 -94 37 -180 q36 -86 99 -149 q62 -62 148 -99 q86 -36 180 -36 q94 0 180 36 ZM773 344 l-522 0 l0 80 l522 0 l0 -80 Z"></path></symbol><symbol id="jinlingyingcaiwangtubiao12" viewBox="0 -212 1024 1024"><path d="M680 251 q72 -72 72 -174 q0 -101 -72 -173 q-72 -72 -174 -72 q-102 0 -174 72 q-72 72 -72 173 q0 102 72 174 q72 72 174 72 q102 0 174 -72 ZM746 753 q17 0 36 -3 q19 -2 52 -16 q32 -14 48 -38 q35 -51 2 -135 q-42 -107 -146 -173 q-104 -65 -230 -65 q-120 0 -220 62 q-100 63 -153 171 q-5 10 -10 29 q-5 19 -4 33 q2 61 34 96 q32 36 88 39 l503 0 Z"></path></symbol><symbol id="copy2-o" viewBox="0 -212 1024 1024"><path d="M311 183 l0 604 l604 0 l0 -604 l-604 0 ZM915 116 q29 0 48 20 q19 20 19 47 l0 604 q0 30 -18 48 q-19 19 -49 19 l-604 0 q-30 0 -48 -19 q-19 -18 -19 -48 l0 -604 q0 -27 19 -47 q19 -20 48 -20 l604 0 ZM177 585 l0 67 l-68 0 q-30 0 -48 -19 q-19 -18 -19 -48 l0 -604 q0 -26 19 -47 q19 -20 48 -20 l604 0 q30 0 49 18 q18 19 18 49 l0 68 l-67 0 l0 -68 l-604 0 l0 604 l68 0 Z"></path></symbol><symbol id="shaixuan1-o" viewBox="0 -212 1024 1024"><path d="M953 40 q9 -8 19 -24 q9 -15 9 -31 q1 -30 -19 -51 q-20 -20 -48 -20 l-804 0 q-28 0 -47 21 q-20 21 -20 50 q0 28 37 63 l315 336 l0 329 l235 141 l0 -470 l314 -336 l9 -8 ZM870 -15 q22 0 22 16 q0 4 -2 8 q-2 4 -5 7 q-3 4 -6 7 q-3 3 -6 5 q-3 3 -3 4 l-311 329 l0 352 l-94 -55 l0 -297 l-311 -329 q-21 -20 -22 -33 q0 -13 22 -14 l716 0 Z"></path></symbol><symbol id="chart" viewBox="0 -212 1024 1024"><path d="M936 769 q18 0 31 -13 q13 -12 13 -30 q0 -17 -13 -30 q-13 -12 -31 -12 l-804 0 l0 -633 q0 -18 -13 -30 q-13 -12 -31 -12 q-18 0 -31 12 q-13 12 -13 30 l0 676 q0 17 13 29 q13 13 31 13 l848 0 ZM834 642 q18 0 31 -13 q12 -12 12 -29 l0 -296 q0 -17 -12 -30 q-13 -12 -31 -12 l-88 0 q-18 0 -31 12 q-13 13 -13 30 l0 296 q0 17 13 29 q13 13 31 13 l88 0 ZM585 642 q18 0 31 -13 q13 -12 13 -29 l0 -465 q0 -17 -13 -30 q-13 -12 -31 -12 l-88 0 q-18 0 -30 12 q-13 13 -13 30 l0 465 q0 17 13 29 q12 13 30 13 l88 0 ZM337 642 q18 0 31 -13 q12 -12 12 -29 l0 -85 q0 -17 -12 -30 q-13 -12 -31 -12 l-88 0 q-18 0 -31 12 q-13 13 -13 30 l0 85 q0 17 13 29 q13 13 31 13 l88 0 Z"></path></symbol><symbol id="gengduo" viewBox="0 -212 1024 1024"><path d="M446 74 q-28 -28 -28 -67 q0 -38 28 -66 q27 -28 66 -28 q39 0 67 28 q27 28 27 66 q0 39 -27 67 q-28 28 -67 28 q-39 0 -66 -28 ZM579 317 q27 28 27 67 q0 39 -27 66 q-28 28 -67 28 q-39 0 -66 -28 q-28 -27 -28 -66 q0 -39 28 -67 q27 -27 66 -27 q39 0 67 27 ZM579 693 q27 28 27 67 q0 39 -27 67 q-28 28 -67 28 q-39 0 -66 -28 q-28 -28 -28 -67 q0 -39 28 -67 q27 -27 66 -27 q39 0 67 27 Z"></path></symbol><symbol id="bingtu" viewBox="0 -212 1024 1024"><path d="M8 458 q2 16 2 17 q3 31 13 69 q12 46 35 88 q23 44 45 71 q33 38 44 48 q20 19 58 48 q28 21 69 41 q7 4 21 10 q7 3 9 4 l-30 -10 q65 26 138 38 q1 0 43 5 l1 1 l68 0 q2 -1 3 -1 q3 0 18 -2 q15 -2 23 -3 q32 -4 73 -16 q55 -18 103 -46 q51 -30 92 -71 q12 -12 37 -41 q27 -33 51 -79 q20 -38 29 -73 q6 -20 15 -62 q0 -1 3 -24 l-134 0 q-2 14 -2 15 q-7 37 -23 73 q-22 47 -56 85 q-24 28 -51 47 q-40 30 -85 47 q-54 21 -114 24 q-30 2 -63 -3 q-35 -5 -65 -14 q-48 -16 -91 -45 q-42 -29 -74 -68 q-28 -35 -47 -78 q-22 -51 -26 -109 q-1 -17 1 -41 q3 -22 7 -46 q10 -54 45 -108 q25 -39 61 -71 q30 -25 64 -44 q37 -20 81 -32 q4 -1 4 -5 q1 -13 1 -40 l0 -86 q-37 8 -42 9 q-41 10 -85 30 q-43 21 -74 44 q-36 28 -58 49 q-11 10 -42 46 q-23 28 -46 72 q-21 41 -34 87 q-10 37 -13 69 q0 1 -2 17 l0 64 ZM1016 326 q-2 -16 -2 -17 q-3 -32 -13 -70 q-14 -52 -40 -101 q-21 -38 -41 -62 q-31 -37 -45 -51 q-28 -29 -67 -56 q-36 -25 -73 -42 q-57 -26 -109 -36 q-6 -1 -58 -9 q-1 0 -17 -2 l-42 0 l-1 1 q-8 2 -13 9 q-6 8 -6 16 q1 234 0 451 q0 10 8 18 q8 8 18 8 l96 0 q64 1 96 1 l283 0 q8 0 15 -5 q1 -1 11 -13 l0 -40 ZM616 256 l0 -236 q68 17 123 56 q97 70 134 180 l-257 0 Z"></path></symbol><symbol id="add2" viewBox="0 -212 1024 1024"><path d="M579 451 l335 0 q28 0 48 -20 q19 -19 19 -47 q0 -28 -19 -48 q-20 -19 -48 -19 l-335 0 l0 -335 q0 -28 -19 -48 q-20 -19 -48 -19 q-28 0 -47 19 q-20 20 -20 48 l0 335 l-335 0 q-28 0 -47 19 q-20 20 -20 48 q0 28 20 47 q19 20 47 20 l335 0 l0 335 q0 28 20 47 q19 20 47 20 q28 0 48 -20 q19 -19 19 -47 l0 -335 Z"></path></symbol><symbol id="user" viewBox="0 -212 1024 1024"><path d="M694 -48 q87 37 150 100 q63 63 100 150 q37 87 37 182 q0 95 -37 182 q-37 87 -100 150 q-63 63 -150 100 q-87 37 -182 37 q-95 0 -182 -37 q-87 -37 -150 -100 q-63 -63 -100 -150 q-37 -87 -37 -182 q0 -95 37 -182 q37 -87 100 -150 q63 -63 150 -100 q87 -37 182 -37 q95 0 182 37 ZM777 686 q64 -56 101 -135 q36 -78 36 -167 q0 -109 -54 -202 q-54 -93 -146 -147 q-93 -53 -202 -53 q-110 0 -202 53 q-93 54 -147 147 q-54 93 -54 202 q0 88 36 166 q35 78 98 134 q-2 -12 3 -23 q5 -10 17 -15 q52 -18 148 -42 l0 -18 q-43 -53 -63 -137 q-21 -84 -21 -137 q0 -98 54 -154 q54 -55 148 -55 q91 0 141 55 q49 55 49 154 q0 74 -29 154 q-29 81 -77 129 l0 14 q19 3 38 8 q18 5 35 11 q17 6 28 10 q11 4 25 10 q14 6 16 7 q22 8 22 31 Z"></path></symbol><symbol id="app-o" viewBox="0 -212 1024 1024"><path d="M412 -85 q27 0 47 19 q20 20 20 48 l0 302 q0 27 -20 47 q-20 20 -47 20 l-302 0 q-28 0 -47 -20 q-20 -20 -20 -47 l0 -302 q0 -28 20 -48 q19 -19 47 -19 l302 0 ZM412 -18 l-302 0 l0 302 l302 0 l0 -302 ZM412 417 q27 0 47 20 q20 20 20 47 l0 302 q0 28 -20 47 q-20 20 -47 20 l-302 0 q-28 0 -47 -20 q-20 -19 -20 -47 l0 -302 q0 -27 20 -47 q19 -20 47 -20 l302 0 ZM412 484 l-302 0 l0 302 l302 0 l0 -302 ZM914 -85 q28 0 48 19 q19 20 19 48 l0 302 q0 27 -19 47 q-20 20 -48 20 l-302 0 q-27 0 -47 -20 q-20 -20 -20 -47 l0 -302 q0 -28 20 -48 q20 -19 47 -19 l302 0 ZM914 -18 l-302 0 l0 302 l302 0 l0 -302 ZM914 417 q28 0 48 20 q19 20 19 47 l0 302 q0 28 -19 47 q-20 20 -48 20 l-302 0 q-27 0 -47 -20 q-20 -19 -20 -47 l0 -302 q0 -27 20 -47 q20 -20 47 -20 l302 0 ZM914 484 l-302 0 l0 302 l302 0 l0 -302 Z"></path></symbol><symbol id="arrow1-up" viewBox="0 -212 1024 1024"><path d="M524 134 q-7 -7 -17 -7 q-10 1 -17 8 l-445 442 q-7 7 -7 16 q0 10 7 17 l35 19 q4 3 9 3 q4 0 8 -2 q3 -2 8 -6 q4 -3 7 -6 q3 -3 7 -8 l5 -5 l384 -379 l16 -92 ZM504 223 l390 382 l5 5 q4 5 7 8 q3 3 8 6 q4 4 8 6 q3 2 8 2 q4 0 8 -3 l35 -19 q7 -7 7 -17 q0 -10 -7 -16 l-445 -442 q-7 -7 -17 -8 q-10 0 -16 7 l9 89 Z"></path></symbol><symbol id="sorting-desc" viewBox="0 -212 1024 1024"><path d="M590 121 q6 0 9 -5 q3 -5 0 -10 q-27 -48 -79 -136 q-3 -5 -8 -5 q-6 0 -9 5 q-62 107 -78 136 q-3 5 0 10 q2 5 8 5 l157 0 ZM315 -64 q-15 0 -21 12 q-7 13 0 24 q8 15 97 167 q88 153 97 169 q8 13 22 13 q13 0 20 -13 q156 -268 194 -335 q8 -14 1 -26 q-8 -11 -22 -11 l-388 0 Z"></path></symbol><symbol id="resetpwd" viewBox="0 -212 1024 1024"><path d="M642 237 q28 1 47 21 q19 20 20 52 l0 169 q-1 31 -20 51 q-19 21 -47 22 l-244 0 q-29 -1 -47.5 -21.5 q-18.5 -20.5 -19.5 -51.5 l0 -169 q1 -32 19.5 -52 q18.5 -20 47.5 -21 l244 0 ZM520 300 q-28 1 -46 18 q-17 16 -17 42 q0 17 11 30 q9 12 24 20 l0 78 l54 0 l0 -78 q15 -8 25 -20 q11 -13 12 -30 q-1 -26 -19 -42 q-18 -17 -44 -18 ZM520 111 q-43 3 -53 27 q-12 23 -10 36 l0 63 l-63 0 l0 -57 q-4 -8 16 -66 q19 -58 110 -66 q90 8 110 66 q20 58 16 66 l0 57 l-63 0 l0 -63 q2 -13 -9 -36 q-12 -24 -54 -27 ZM520 804 q-215 -5 -356.5 -147 q-141.5 -142 -147.5 -357 q6 -214 147 -356 q142 -142 357 -148 q68 0 130 17 q62 16 117 48 l46 -65 l85 220 l-221 -32 l52 -72 q-47 -25 -99 -39 q-53 -14 -110 -14 q-187 5 -312 129 q-124 125 -129 312 q5 187 129 312 q125 124 312 129 q187 -5 312 -129 q124 -125 129 -312 q0 -44 -9 -86.5 q-9 -42.5 -25 -80.5 l58 -25 q19 44 29 92.5 q10 48.5 10 99.5 q-6 215 -148 356 q-142 143 -356 148 Z"></path></symbol></defs></svg>